<mxfile host="app.diagrams.net" modified="2021-05-10T13:42:07.395Z" agent="5.0 (Windows NT 10.0; Win64; x64) AppleWebKit/537.36 (KHTML, like Gecko) Chrome/90.0.4430.93 Safari/537.36" etag="GOFW3-HuMBVUTK2cJBB-" version="14.6.11" type="github">
  <diagram id="ArLewUHQBs-3izOHq9Gi" name="Page-1">
    <mxGraphModel dx="1038" dy="580" grid="1" gridSize="10" guides="1" tooltips="1" connect="1" arrows="1" fold="1" page="1" pageScale="1" pageWidth="827" pageHeight="1169" math="0" shadow="0">
      <root>
        <mxCell id="0" />
        <mxCell id="1" parent="0" />
        <mxCell id="_7hgCI2BtyIkv9aABqNP-2" value="" style="aspect=fixed;pointerEvents=1;shadow=0;dashed=0;html=1;strokeColor=none;labelPosition=center;verticalLabelPosition=bottom;verticalAlign=top;align=center;fillColor=#00188D;shape=mxgraph.mscae.enterprise.server_generic" vertex="1" parent="1">
          <mxGeometry x="480.00000000000006" y="398" width="41.6" height="86.67" as="geometry" />
        </mxCell>
        <mxCell id="_7hgCI2BtyIkv9aABqNP-3" value="&lt;b&gt;&lt;font style=&quot;font-size: 14px&quot;&gt;Server&amp;nbsp; d&#39;intégration&lt;/font&gt;&lt;/b&gt;" style="text;html=1;resizable=0;autosize=1;align=center;verticalAlign=middle;points=[];fillColor=none;strokeColor=none;rounded=0;" vertex="1" parent="1">
          <mxGeometry x="530" y="430.00000000000006" width="150" height="20" as="geometry" />
        </mxCell>
        <mxCell id="_7hgCI2BtyIkv9aABqNP-5" value="&lt;div style=&quot;box-sizing: border-box ; font-family: &amp;#34;segoe ui&amp;#34; , , &amp;#34;apple color emoji&amp;#34; , &amp;#34;segoe ui emoji&amp;#34; , sans-serif ; font-size: 14px&quot;&gt;&lt;b&gt;jenkins : 127.30.1.3&lt;/b&gt;&lt;/div&gt;" style="text;html=1;resizable=0;autosize=1;align=center;verticalAlign=middle;points=[];fillColor=none;strokeColor=none;rounded=0;" vertex="1" parent="1">
          <mxGeometry x="535" y="449.99999999999994" width="140" height="20" as="geometry" />
        </mxCell>
        <mxCell id="_7hgCI2BtyIkv9aABqNP-7" value="&lt;b&gt;&lt;font style=&quot;font-size: 14px&quot;&gt;Server&amp;nbsp; Nexus&lt;/font&gt;&lt;/b&gt;" style="text;html=1;resizable=0;autosize=1;align=center;verticalAlign=middle;points=[];fillColor=none;strokeColor=none;rounded=0;" vertex="1" parent="1">
          <mxGeometry x="129.9999999999999" y="494.66999999999996" width="110" height="20" as="geometry" />
        </mxCell>
        <mxCell id="_7hgCI2BtyIkv9aABqNP-8" value="&lt;div style=&quot;box-sizing: border-box ; font-family: &amp;#34;segoe ui&amp;#34; , , &amp;#34;apple color emoji&amp;#34; , &amp;#34;segoe ui emoji&amp;#34; , sans-serif ; font-size: 14px&quot;&gt;&lt;b&gt;nexus : 127.30.1.7&lt;/b&gt;&lt;/div&gt;" style="text;html=1;resizable=0;autosize=1;align=center;verticalAlign=middle;points=[];fillColor=none;strokeColor=none;rounded=0;" vertex="1" parent="1">
          <mxGeometry x="119.99999999999989" y="514.67" width="130" height="20" as="geometry" />
        </mxCell>
        <mxCell id="_7hgCI2BtyIkv9aABqNP-11" value="&lt;b&gt;&lt;font style=&quot;font-size: 14px&quot;&gt;Server&amp;nbsp; Applicatif&lt;/font&gt;&lt;/b&gt;" style="text;html=1;resizable=0;autosize=1;align=center;verticalAlign=middle;points=[];fillColor=none;strokeColor=none;rounded=0;" vertex="1" parent="1">
          <mxGeometry x="160" y="220" width="130" height="20" as="geometry" />
        </mxCell>
        <mxCell id="_7hgCI2BtyIkv9aABqNP-12" value="&lt;div style=&quot;box-sizing: border-box ; font-family: &amp;#34;segoe ui&amp;#34; , , &amp;#34;apple color emoji&amp;#34; , &amp;#34;segoe ui emoji&amp;#34; , sans-serif ; font-size: 14px&quot;&gt;&lt;b&gt;application : 127.30.1.5&lt;/b&gt;&lt;/div&gt;" style="text;html=1;resizable=0;autosize=1;align=center;verticalAlign=middle;points=[];fillColor=none;strokeColor=none;rounded=0;" vertex="1" parent="1">
          <mxGeometry x="140" y="240" width="170" height="20" as="geometry" />
        </mxCell>
        <mxCell id="_7hgCI2BtyIkv9aABqNP-13" value="" style="aspect=fixed;pointerEvents=1;shadow=0;dashed=0;html=1;strokeColor=none;labelPosition=center;verticalLabelPosition=bottom;verticalAlign=top;align=center;fillColor=#00188D;shape=mxgraph.mscae.enterprise.server_generic" vertex="1" parent="1">
          <mxGeometry x="160" y="398" width="41.6" height="86.67" as="geometry" />
        </mxCell>
        <mxCell id="_7hgCI2BtyIkv9aABqNP-14" value="" style="aspect=fixed;pointerEvents=1;shadow=0;dashed=0;html=1;strokeColor=none;labelPosition=center;verticalLabelPosition=bottom;verticalAlign=top;align=center;fillColor=#00188D;shape=mxgraph.mscae.enterprise.server_generic" vertex="1" parent="1">
          <mxGeometry x="204.2" y="119.99999999999997" width="41.6" height="86.67" as="geometry" />
        </mxCell>
        <mxCell id="_7hgCI2BtyIkv9aABqNP-15" value="" style="endArrow=classic;html=1;strokeWidth=2;" edge="1" parent="1">
          <mxGeometry width="50" height="50" relative="1" as="geometry">
            <mxPoint x="481.6" y="440.84" as="sourcePoint" />
            <mxPoint x="201.6" y="440.84" as="targetPoint" />
          </mxGeometry>
        </mxCell>
        <mxCell id="_7hgCI2BtyIkv9aABqNP-16" value="&lt;b&gt;&lt;font style=&quot;font-size: 14px&quot;&gt;Build Gradle&amp;nbsp;&lt;br&gt;1- Purge&lt;br&gt;2- Test&lt;br&gt;3- Parckaging Application&lt;br&gt;4 - Déploiement&lt;br&gt;&lt;/font&gt;&lt;/b&gt;" style="text;html=1;resizable=0;autosize=1;align=center;verticalAlign=middle;points=[];fillColor=none;strokeColor=none;rounded=0;" vertex="1" parent="1">
          <mxGeometry x="252" y="450" width="190" height="70" as="geometry" />
        </mxCell>
        <mxCell id="_7hgCI2BtyIkv9aABqNP-17" value="" style="endArrow=classic;html=1;strokeWidth=2;" edge="1" parent="1">
          <mxGeometry width="50" height="50" relative="1" as="geometry">
            <mxPoint x="501" y="398" as="sourcePoint" />
            <mxPoint x="470" y="313" as="targetPoint" />
          </mxGeometry>
        </mxCell>
        <mxCell id="_7hgCI2BtyIkv9aABqNP-19" value="" style="shape=image;verticalLabelPosition=bottom;labelBackgroundColor=#ffffff;verticalAlign=top;aspect=fixed;imageAspect=0;image=data:image/png,iVBORw0KGgoAAAANSUhEUgAAAFgAAABKCAYAAAA/i5OkAAAgAElEQVR4AeWcZ3QVV5ao+fvWrFnvTU+3MVgChMAEg2O3OyfbbRvbBOVEcHY7trOxjckZRSShLJTIOecgkEAgMgJJSCjncBWubg7fW/tUXSGYbj+7p6eXZ961D1W3bqnqnK/22WefvfepQQ7AjXwc4LaCrRscPeDqA6cF3HKG/nG4QIpL+yO3G+xusLjBCpjlZ/16Lqcdu6lLu46rB9xdgBHc+nVNJrC5wQbYnchFnTiwYseq/rPjVDfSqqYurN9XVVirtKdmautwOXGq+sqJUhO7XqR2dlVvt8muVVpOcYLZZMdhV7vylT4HtHZbMVjcWEAVk741Y8eOGTdyxHinuK24XTaszjvn98m1gEEeIHJ3t82oA+mDPgPYBbBL/tceglt9pa/PTXuXncZ2G7WtZuoMTlr6oLbTxq2GTqoaO+k1CznhZsdt6cFt6cJt78IlD9BpB4dDY2By4DQLAA2w7T8BWJhr3F243DYcTgsOpxm3S67vwG6yKcjy3Iw9ZnWynC9gu00OyiobOVF0mR0H89l3oojzpTVUtffRYgaDQ4Nn0+spIuV29GrtcUlbpf6aoPW6tPON7nsAY+8DtxnsRrDJvia9PX0OjHboskBrL7T2QS9aaXdBaTsUV1toc0ObE7pBPeMemyYNVukcmoyBNNZmAacu7nIL2bVblQRrgO3YcOCQh64ekk7hO0iwnO9Wf+fAjV0V7UlqUtLdbcVqBel9vSY3nT12mjotFF29Re6W/Zy8eJNbzd1cqmxk0+ECUrfs48C561R126k3u+hweUBLZxbpN2sNkB5sc6sOKY9TkEvTBgl1rfFSAWl8Dxpou/qhz+Kk26IBE3C1fVBQbiVuYxEhHyXwxLSPeWzqJ/xh5kImvvgXnn9jCZ9Ebib3yA1utkCPSIcLqltNWi936bRtDpxGqyY+LrBaTAqwA4H7VwAL3P8HYKtd5MutA5Y9l5Irt9up2thrcak62FxgcoLJDUVXKsjddoA9J4pp7HFR3tzLlZpObrb0UdXtpKTFyKELt1i77xRr959h3/kK9ZsoCIEo/KSIqjQ77oCVY3LTuwFjx2XtBbfoLhcNjW00dpiVNBqAA1fNfJlcwC/DlzHymY8ZP20eT0REMjFoOSNe+IrHp0fycMgSxk/9mkcDvibkszQSd5dwpQ3k70UyDEZROzosaanUyqkdcCupdSjpvUuCPeffC1iOS7nn0381lxOr04Hd6cAi+lbXpaJbKxq7yNq2n+2Hz3CrxUhlh426Xqg3QZ0JKnuhtNNOSZuFay1mLrXYOFbew7r8cpK3n2bLsWJu1LWphySguywiFBpgaaLJ5FLkB92pn0iwDZfdpOldpHvbFdwGMyTtuMqTocuZELSKcYGrGBccw7iQ1YwJjWdceCITZqbgPXUlPv6RPBQaw4SQSEa+8A2Ph67gi/RznG3UVEevHbr7dKUuwGwOrH0iD9KlRS14AGvSpuon/3xbuQewALU6NZ0o3VSKNF6Bbekhe9shUtfvpqSuUw1VzVZoMqMktrLbQVmHQDUquOVdTip63NzsRrXhcidcanax/1wZqVv2kLllF4VXrtFuttJitKiBTUm21NcJdwF22UTxu3BJl5VuBAjc2E1n+UXYQh4Oi8U3IJ7h01YzMiiJkSFpDA9O4QH/RIb6JTDu5Vy8/RMYEZDAxFmZTIxIwmfKCiYExzLp/QyutGiQO4zQ3mnrh2YziUbXUIglIbpXKilHFGAB6AE8cN9zzLOVjuECu+MOXLlOZ5+dmtZudhwtYNvR05TUtSsQHXaobDNS1WWhzujitsFKTa9TlUqDlYpOC7cMFm609nKhrptbfXC5HS7WWylpNlHRYeRKdR07T54kcd06DhVf5nJNMx02bbAT42CQeviqFWJ+OVVDZPwRSZNunbG/hN9MX8jIF75mTEgiwwNTVfENy8Y3Yh0+YbkMD8vBJyKPYcFZjAjLYmRoJiOCUvAJXMOooCTGhaXwWHgsr3yTwy2DZr509IFDHwDsZpFgUUsOZZp5pE7/WdcnIu76xwP03u2A5+CR2voOIyfPXSN3236KbtymrsesxoQ2i4sWk4tWs5tms4tWK1QbTNT32lSp6uxDSk2PVX0X4FebLFxptnGt0UhJs4Ebza3caG7mWlMjlxsa2X3uMnmHC8nak8+Bs6XUtjjuAazbnYZeBz0uOFNh5tm3VjJ+2jc8GLAS3+AkRgRnqiIwtZKNd4hWhgVna5CDM/EJTsc3KJ1RQamMCkpmfGAsj/nPY2nmSWVldDs1CRVkFrMMhRpgGZgErADSAAtYD/J7AYuq0dWNEhLoNYppppnYRwousuPQaY4WldBuhXarG4MTDDYXrX1al+6wONT3drNddfE2k41Oi412k4XGrh6qWtupbm2ntqOb8pYuSho7KGvuoLKjg5tNjRRXVVLcUMv1rl4K6jo432bhZGUPuUevkbjhhA5YgdUqKpWzuqHJBN8kHWTMS7MZOW0x42Yk4ROcqsENyWSYlH7IHthZjBApHgDYA3lMUDwT/JYQ8EkqBRV2BdnolDmGWBXSkT2ANbAewDLZEHNL+/3bATtseg8ErpfWsDQ6hfSN+ym8Vqd0rag8sVFFX8q+mFMGq52W3j46zFa6bA46TVYaO7uob2mn1dBDr8VOV5+Fhg4DTd09VLW1UdnSRJ2hg4a+Hm73dHOprZPTDZ2c74KjdRYO3ray45qB+WkHBwAWSXC56e4xq8HgfJWFX4bNZ8jTn+ETFMPI6emMCBHA6d9aRHI16U3FV0mvSHAqo4OSlC4e9fxsVm44p9RPa58do0XGdgGoTQYEoQijSK9WBLBVL/fqZF2CRfEOUBc9fS5uVDRztLCE0ro+dp28zsrUzeTsOMD1qjpN/1oc1LZ10Wa0IgO+0eHGYLbS3m1UQC0OsZF7qayppaa2Xu3XtzbT1NVGY3cH5Y31XLx9m3O1jVxsN3PJCBdtsK3CyZzNF3jh8xTGTvmYQVrFtAq6ndDU2qsqkLr7Eg9N/ooHg6IYOWMtPwlMwTs0lREhyRroAVuRbJ/gZCXhsi9gB8L1qImHp6dy/x+/YMa8ddw2ofSe0eaRpb8FWKwLmZ4K5AGA1ZO4B7AYo27twcgsc/+JK5y6XEdRWRdNFrhY0UTOjn0k5mym4Gpp/1S4ywotPWa6zE5auo00tXfRbjDS02ejz2Sju8dEa2c3TV0GmnsN1BkMlLe0U9beS1kvXDDAoQaIOtbI5IXbGRmyiDGhixgXNOduwDIHkClwpx3emJvBo2HLGD8zFe8ZefxbUCZeYekMC01iWGiy2mqwRXUk4xOib4OT8b236MDHhKYx2j+KP7wRx/FbvdqMz23D7hAfhYAWxXBHGDUJFsB9CrKmk9Up2j9K/0rP0yXYBTarNo2XKfypi9XsOVXKyvS9RK3dR96BQi7VtFHWZmZHfjFxOVvZsO8kV2+30mqGBoN4QTSTrrGjj5qGTkxWsNihuslAU4+JW60GrtW3U2Fw0gSUGCHxcAOBC/cwbnoig6cs4/6py5kwK4GJYUtFRehS4NaMCBGCFgs888oiJoasYKjfau4LX8fgWVsYEp6Od1iSKhroJEaEaEUBFsgDQGtS7ZHsdLympTBhejqPBi8h52SlmuX1Osw4nOIWEVWhz/I0QdRVhAdwn7IwBLL6KHG+W4KVr8EN4nK4VdvDkaIK8q+2sLewlvM1VvacryR11wnSduZzvKSOGy0W8kvqWHegkOSNByi4WktJjUG5A4yiNmzQ3uOioc1MTZuZqi4bTTZodsLlZsg5Ucv7MUf5zRsZPPBiFD96PppRM/J46NV1eE1byeCnRUX0A9akQIabinZ47rXljPJfyr9PieXHEZu4b9ZWBodn4hWepMpdoMMSGRGa2A9bk2yPKvHo7Uy8AzIYF57BOL+FpBy8oQBLl9Pgig0+ALDe1cUudmLEyd8ALNLrkWDpAG6tH5RWGdh9vIT9RTVsO1nFhQY35xscnG0ws+dSPQk7ThG76RjbCm5ysc7E7W7YffoGaVuOkLXtOMVlrRgdIHOiNiM09ECNCWULF9a4iN1ewpQP1jLiuYV4T4pl4sxtPDhzFz96MZ37p6Xx5FubePLl1fog51FueuUu3e4j5JNkBdg7NJ2hr+7lX4I3MDg8C6+wZFW8w5K5t2iqI5lhIal/paQzavoGZR+PD1xKxtFyBfh2U70+wOkSrA9uHsNMAyxwpWj6VaqrSfHdEixWhPzWa4bbTSZOXKrnUHE9Gw6XUVwPx8u6lAlV1GDjUhsU1pjYVlRB0s4CVuUdVBJe0urkeqON3L1FRKbtZOfRa1S2OmlzwNVOWLW1lKffWM2o579i9EtLGBeUwKjgtXgH5uEVvJkhARvwCsjFNzAFn+fnDXBX6pDFLVDdCi+8upwnpq/GKySDfw3axANvHmJoaLYOLh0B7x2aqYpXaCZSBgekMDQ4nWFhGQwPzVDnegenMDw4ieGhaTz48mbun7qasf6L2VDQoDxy7T09OF0yiRXPlyZ9ogc9RfOoySBn7reG7+hisZHvqDiBLr+Jf/pmtYGjxVXsOlPB9tNVnKkyU1jVS0F1d385XdPNwCKwI9cdIvvABYpu93KjGXaeLCd182kic87x/LtbeDQ8D99p8YwOiGFsRAKjpyeqMUnaPTgwj6GB6/H2y2N8cDaP+MUySFSCkgj5xwUdHVZae+CbuL2Mm7KQ0dPX8i/+Ofxkxg68QrN1E+2OHewdkqWODw3LwjssG++wtQwLW6s9AA/c4DXK+hg8LQnvaXH8/q1kjpdb6LBCn9WGSxz79wCWI54Bx2Om3ZFqvc5S4bvKAMA1HRy9UKkBLqjkTLWJwupuCqs7VCmoMXBaL/m13UjZf72R0j44VtZJzMbjJG0rZG9RrbJA5iXn80hwLj5+6xk2NY0RwWsYGR7PsPBYvMMS8ZqezvBZmxgWsYVh/usYE5DJhClRmgQrwjrgxnqDcnBtP3Gbob95h/HTk7g/NIsfBWapyYU22UhnWIgUTYI1yFmMCM9VcB8ITsUrKFlJrgyCI0OTGSVmXUAiI6asYPq8TVQZob5T1IILl/ifFU4NkDz0OxIsMEW6xV98j4pQ0it6W9BrU2lphjjpbuqA9xSWs+N0BUVVJs5WdVBY065KQU0Hp2u1kl9rQJUqA5faHRy83sSZaiPnqs3EbzhBswNmJxxh2KRohk5OV2rONyyJEWGxDA2OZGhoPMNmZvJAxDq8wjbhFZjNqIA0xk9Zrjt7pFaqZg4sfQ4cbrhUaeaxKZ8zxn8J41/JRqB5bFwPZJl0qBmdDlrUydCgFIYGrGFY0Bp8QpORiowOTWJUcDyPzUrjoWmLmZemTZc7ZJiWSYZDXKSao0nqIbjkFymyL142DbJMOjwfUQ06XLXVBmkP4NLqNo4XV7C3H7CRs9XtnK1p5mx1K4U1rRTUtnK6tp382g4FWCT6bEMfx8vbKKo3c67OytL0PXQCs9ccxmfySuWHGR2RxugZaxgRFt0PeGhEBv8WkMGQ0HUMC83hwZBUxvv3m2kOECNYQjn6oNxmgjnxexj9/MeMD4tiTESictx4bFwPZE2SNYl+IDAFKcOCxIJIVpLrG5yIT1Acvn6RjPNbwovvrOHQJc2bZbLZVdhFxbecEgfUnPwCySOtmr4VsB4p9ehdD1z5G9nXAMsTEAkWwCeKK9hXUMqu0+Wcq+qhqKqVszWNCnJhTTMFtc2crm0lv06DfKquk5M1nVxotXHgWj37rzawMvcA7cAXyYcYExzJyPAkfCMSGBmxWkmwV1gsQ8KSuD8sgx8H5+AVsZFh4bmqx47xWyATDamcgJXIn2xd9HSbVRctrrbyh5nzGfXip4wJWsbooHjluBHnjYD2QNYkOR3v4DR8QtPwDU/DNyyFkUEJDA+IYYR/FKP8ljP+hS+JzCuiUw+79IkXzdEN7h4wtWvhJI/JpdvCAluT2nvB6vWWug8APFCC7wbcRVF1M0U1DQpyYW0jAvl03R3IhY3dbL9UzoVWCxfb7BQ32Vieu5+KPgF8AN+gpXiHxjIsJBqvoEi8QmIYHpGEV0SmUqP3h29kaNhG7vNP5QG/GB70nyeAB8K147JYMJsc9Dm1cM+ancU888ZSxvvNYWxQtJJicUHeJcniowhJVb5hgTs6PF09weH+cYzwj1FO+Semx/LOsl3cbIUePQpttYpakFlcD9g6wWkGcf54xq4BkDWzbABUEQgl8R7A2pPotyJqOjheXNkvwcW3ewYAbuCvAm7uobC5h6IWEwfLGjlQ0kDU5sM0A19lHGKY/wK8w2IYERqHd1A03oEJjJDZbXgu94fkMSRks7Ik7puWwrgZKTz9YSqDVCU9ldWlRyrZ3ONSdqp0j9lrdvOz0LmMD4pkdJCmKjyQPT4IAewVkKBUw4NhqZr0+sXiGxTLo6+k89S7azlRpjncSxssyoDXJNOKo69NA+0B7NEPuvhq5wlAUQMC1ANVgEu5M8CJIjG7UTMyMdP2FlSw63QF56qMA1REowJ8R0XoaqK+k4Kmbg6UNlDQ0ENBbQ/L8vZS74Z5OccV4OHT4xk1K4WRYZoqVB7FkPXKPBsSvImhQeuUT/xPs3fxfvIpHbBTwtkuxNkjbZMRvKbTTa1EHoBqO6Qfb+C3f16rIhqDn5fQUALjZ6zlwYgMNap6ByYxKiJdTa3Fbzx+RjpDXlzJA5OX81bydc4boVXcg8DNRjtVbWY1iIn/19TbqQVcJeLsCedLRYSbTOH1IiBdVpMuuRLzEmnX8Mu/4jOQgVHcoGWNVo5dbGDfuTri1uez/0I9+WVNnBefbaOBwro2ztR1Utxq5ExzN4crmyjutHC4soXDt1o5VdejbOT4nSdV+7/OPIx3wEK8QhOUH0baOzwgE9/QjYwI2cwDfhu4b0ouw4PX4xuazuQ5e1m8pUQHLI2SbusAsZwMLtTIWW2Bqx1QUAXbLll4b80VJn11lIkzs1TISCIWXn6JeAWIxZDGkGnxSoJHhaUhUvzk2xuZFXeJuFMuDtZCcRNca9Igi4u9oddFp1mmwiKEnoFW8iX0kL4OWBdknHZdWt3Q1yumnaafJQVDAo0iGAY7lNT2kb71NPPit7LhRAVbC+vZkH+LvGNXOXS9jjN13eRXdXC0vJkT1R0UNPVS2GzkSGU7J2u7udDh4FyTmf3X61mRt49aJyzbXMTwwKUMC0/BJzwD35AsRoduYHz4dkaHbGW433oee30fY8PFVo7hhc82Mjstn0EysLkcbmWa9Tq0LtzohD1Xenl/1S6efm0lv52xmF/OXMWv/5zL2LB0vKfEMcwvnuGByQyTEFJQGj7haxnz8joeeXMTPqEp/OvTi7hv0nIefT2Ln72VowKlT70aR8SnGazMO0tBlY02ND0vETmjpMUISZUvoQNW5PXDYrbZHCqfQc6TU01Wl7IYBKxMTCpb7ew4WcKmI9fZml/JvksdpO67zvyMYyzJOcnGgkoSdhYSs+Uk6wrKOFVr4lybixM1RvbcbOVsi43j1d0cudXBkbI2jpd3kL7vHI1u+CRhDyODItUESkV1AtcyKiCX0YHrGeWXx4gp6QyfsgbvF1Yxxn8Z/l/k8tr8HAZh04KPUknJe9hS2MSMuRuY6D+P4X/6nAn+i3giZBmjJy9glH+sAisD3LiZOYx/eb0C6xWUqswzMdFkXwKhMj0WS0JUxUOz0pgQnsjYyQt5eMo8xr/0JVM+TCTzZCW3zNAhaUYeNSDSa5MEA4dEL5UKUNx1ae3q7qOrV4L6mjoQsA3dcK6snew959hReJv1xyoJ/EsUvwmfQ8jsNNKP1nG4wk387qus3nmB1EM3yDtdTdKhElZtO0PmyXJO1Fk5fKuL47d7Od/k5FyDjSMlbUTnHaLWAguyTuATuErNB4YFpuPjn8ko/yzGBuQwPjCL8RJUmBLJk7Pimeg/l1+FfsUny3NFRWhpCTKyFzfAG8t3M2zSHHymrmTCjGTGiA07bRWj/aJ5aHomD4ZmqGiyT0iGklyvoHSGh65l5IxchodnaRUISVX6eFhQIj95cQWDX1ihus0joWt4ODiex2ck4Dt1LhPD5hO58wp14iKVSKxIrJCTuJXSr5rtK4BlT5JgZCvC0GSwqZyEy5Ud5Ow5y86CSvLLjcRvLybzyG2+SjvOH19bwTNvxTAv5zyvLN7KWyt2kHTgNrmFLSxef455OadYe6qGvLP1rNhyhp1XWtlxsVn5qs/V28kvNRCTe0RF1pevK2S4/wq8QtIYFbaWsaFZjAvKYpxfCg/5J/JIcAw/DV/BI/6zmfL+SjafLlepACqiIQPDuQojv5+1lNFTF+AbtFp1deny3gFadFjcjN5TExg6NZ77pyRw31QpaxgiKiIsB99ZG/AKXqsgi7NHnDxisk14LZeJr+UybnoGg59dyQi/BDWz8w2JZUTgYn77Thyxe67SImpCJjkCWRVdJ6tZnM4daOmyKcCNPZC9/YRSCdea3Gw+VcmTfn8h+NM1/OmtSN5auZsz7bC7HF5ZtpeHAxfwqP88nn83kfm5F9lXBrtvOIjadUPBTj5STtapKhJ2XyJl72W2FlRx7Gob6dvP0GyBrxP3M8J/GV4hKYwOz2RsSAY+L8Xh/cwSRk9axCOBC/jVzPkk7rtAqVHTBt02Cdu7obSqm7nxO/nNzFWqKw8NSOZ/Pbeaf5m0hpEztjDula0MnpzImOk5jJ2Zx7hZGxg9cx0jw/MQP8T9gRn8yC+Z4RG5+MzIVR62n0xLYIh/IiPDUhFJ/tFzK3j8zR389J29/NsLcfx4WjSPvpfDvz//Kb94bQlFDU4V+ZW8MTUgKAnWAqGSMWl2Omk2mJFw/8GCa+TtyqeotI09hRUsyTjAml2XSN5fRvicbF5dso28YjPzNpbwatRhog40k13sIHJ3LYs23sDv81xG/Okjfj59KYs2XWHThV5Sj1YzLyuf1Tsuk3v0Fln7rpG1q5jI9H2022BJxglGBq7AK3iNmgOM9E9g9JRoHg9bTdCXm/g8+RgXulCCIlNrGVcMfb0MkpDI9mO3+HnA14ybtowHpsSoubTvyzt5IHQjQwNy8AnOwScok+FBIplaGRqUpiRW86DlKFemeNS8QrMYFp6F78w8Rs7IVm5KcVX6Tl/Lv78Uj++M9YyYnsfw6Wt58OW1DJ26hHEB3/DqvAzqe7WsH5dNJhGajetyuTDZnBgsTo6dvc663acouN5EQx9sOVFG2AdR/DrgC34bNp+PVx/hXBvsuwVRe6t59sNUhr/wKb96I4YFW26w/zYkH2tVmUbhC7byy5krGTnpYwV6+sJNRO28ScqRGlIOVLBqXRFpe6+Tua9EmZafxe1nXNBifINW8mDgciYGreCPr8XzftR+9l3uVgN2k1uzkASuFRcWWx+DGnrhD+GreDx4NWMCk/EJkhB8rio+QdmMCsxUx0cHJitXpUisx3smML+96N425TdOVaEmFREJS1WjsUSfxwQm8nDAcn7h9yX7z9xGLBmT2YrTqfmHu412yqo6SF13gCu1Pdxsdys34rsLs0nbVcbuIgvxm6tYnHGdvVfhraVHeebNNbwTc4SYfbdYfaSC+GM3STldyZSPV/PLiPnMmL+exZuvsvGylYglO3j2ozR8psxmXOA8fjprJe+vOUVmYTdJR1tYsrmEORlFvLl8Ow9N/YTxk9/n1+Ff8u7SXHadrVZjh0oH0LNxZYzQjB/NMTVoc347D/stY9S0GJUoInkNkkAiW8lpkHD72MB4JK9BZm0DnTvfZ1+iH17h8QyNiGdoeKp6MCOCshkdmM4E/zh+5reA9+Zl0GiUrCItL00qm5G3nZWr13GwoJJyA+y71MArX69h7B9e5bFJn/H8q4l8Fn2Wg9cg84iFVxcc5uehUUz+OJMlW66wtqiJlNMVRB24yKyFWby+bANBX2YQf6iKnaVuvsy9yLytN1l1oIGw5Xv55Z/X4PX8F/zy9TiW7qpk41UXHyadYvTzH/Bk0Ee8vzyDnWfLqerRUrBFowlQ6WlqZiQzy/65Pgx6Z9VWRk/7Bt/gKDVD8QpLVdFjCdFLYNMnNI5RIdGMDo5WLsdRwYn8PcUnJBGv8ESGRCQzJCxLufW8QiSElKt6iEjx41M/4kJtn0obaDQY1WC2fudhopI3s25vMbOjcthwopSTt0xsPtXAN2tO8OKbiTw8aS4Pv7iIkM93sHxjLduuwvYSWLKjlKc+iGPk1Pf46cvfkHy0isyTjRyugl2lTp7/yxp+NmsZP5u1gpdX7WNbGWRfMLN8dyULN13j8/TTPPXGKh71/4KZ36Srycq5ml7aJbdYt73FQBArR/voLtSBgP/45iJG+H3FmFmr7wAIT2VouMTcEhkWFodPaLQOOU551MSr9n2Lb0i8UhESmR4clsvg0I0MCdmKV/BGpZbGBsXysN/XRG08rezx2+19yinUbkElj6RuOs7202XEbjzJnITtLM8+ydYz7Ry+ATFbbjHtgyzGT5rHuBfm8dPQlXyQVMiGK07ijjXwdtIRPso4yYbz3Wy+0MvLizYRu6eC5dtv8MbKvbwXf5SMgnYuSe5zGyQeuk3EnLX8bsYcnnt9ocrQKapzKLeBzBUErqgFgSvS63A46DPKMglt3LhLgh8Kns2Ql75k5MwEhoYnMTgiXUWPBYQEOAXyiNB4Jcni2/17pFf+RsL5EhQdGpbJ4LB13Be2mftCdzA4ZDvewetU3ttjEat4+vVlqiEyle4UfSyzPYlQ1PdRcKOV7H0XSdx0iviNhcxbs585CQdJP1jNsVuw/bKTOZkXeCx4ET/53Xs8ErqUp95P5b2U0+ypgs0XTUx6J55H/b7ioZc+I2Lues62waVuOFELSQfLCf1iDQ+/9Gd+F/oJn0WtI7+0Qw1yArZdoswDJFdsHE16dcn9a4AnBM/Ha8oCfMLWKNWgum9YNkPCslUgUyLE4q7Rf78AABDHSURBVDwXQHeH4z1h+e+z1SLOQ0M1Cb4vdDuDQ7cyVFRFSKoanR8N+JJyozYad+l+406TNhWWxrXZoLwVjl9pYfX6E3y+aj0fLlvPhyu38GnsPvIK2jhQBgmH6nl56R4mBi9m1Evf8Ic3E3k7cj/Jh+qI3XWLVVuukV8LhU2w+0ov89IP8+wrc/lN4AfMjl5HcVUXjTLLlEx4XWI9cULRu31WhxqMlWrwgBUvn0RolHdP8/ANejxkFeNC4hkpkYjgbCVN3sEbkCL6USwJ38AsZaZJFFmLIIv1IPvffSsDokf6xUHvHZzLEFEToRvxCslVA6gkGf4iYhEHr3WqxnXr3jHJTpehQyJM0jhpaKsJGnuhvM3O1uPX+CIqh/nJO3l/eS5vLMxhYVYB2y9Z2HHFxSeJhfw0eDFjJ33KuEkfk53fwi0rnGuEBWlH+W3wp/wh9GNe/SKSjYeKabFqUHslEVKfRUoSoMdCEHfJXTrXaaOvq11fGXAP4CcCl/FEWBKjpsYrk8w3UIDmMiogm9EBWSo6Ot4vnTEBmlNdBj8tZP/9ttIDxJ88IWAlYwPjVGREnCbiTxXgErOTpQgPT/mU9J3FSmq6jE6VjiqN8Th6ZPGKpBZIY5Vr0gXNfS5lLh08X0ZM3gE+WraW179OZebnqXy4Yhdp++s5USlWRiPHK+FiK8RsusBzL8/jZ5PfZvqHK8jZW0R1h0vd1/MQNXMLzGbpO/1UFVunw4ZbrcISvSt2u/h0dD/1wEHuwd+9w8+DVjB+8jIe9otjgl+iVvzj1XeJ7T8+LZpH/KJVREOsidHBscqq+D7b8UErecJ/Pk/6zeWxgEUa6KBY5euQSMmEwOU8Mu1rfhPwGUsStmgptI1tqKx7h/iALdp6Omm95Hfp7RUdaHO56bE5VfJVi8nNxVttKnHkq1UbmPXxaiLej2fWx6nMTz5OxoFbhPwljj+EfE7Ie8tYmLCVijZUPp5c2jNw9evW/sxPbVbZP4ANVAsK7IAgwEDAny9bx9yEQ3y0cg8fRR7iw8ijqnwUeYRPVh3ik1UH+HTVPj6J3McH0Qd4/+8sH0XtZfbK7Xy1ciufrdrNh1H7eC/6CO/EHFXbD6L38fGKLcyN3siG7fn09DiorqgEgSvZvWphpMQNZY2ADRwiMSLHWsOV495mV4tdBJSsIKrtgEOnK1kSu5VZ70US9Ofl/C7gY3419T1mR66juKJXRW3kDhIFkavdZXJ54MrqK1EW/VB1a8Fz/4HH1VW0py/XGiQmhxS13Ep3WcqIKUWOSfGcIx3l7y3SCEnsliLXUKOyDFp6kUiH3Ed+Vw4fF3Q3t2jhfEcXLlMbOGXZl6zUtILVCJZesPbitBixyr6+rs4ifmJdb4tEthrgZpWRtdvOsjhhGycuN6kER6mT0uddutNf16xKSj3wFGTP4CWPQOANLAJ74Hc9uq0/rEFtRgM1ba2UNzRRb+jVSzf1hm4aDF00GDppNLTT3NlOm+TNtv29pZv2VjNtrRZthWingyqDi9tdLrWt7XRxq6YbQ6eL1vouTO1GelslVifSI9ELHajFpAFWEfB7Ap/ScJdb5QLqy000x5w+UAnMymab0rOy323WpLajS1aDesRXAHkmDALUUwZAVGLuAXnvtv8pqd4wSMuYkXXBngUospXvUiSbRvLCPHIr3UR0zd9TxP2oPXypn1Rb73j9ek/9Lj9I62WrGu3AYhV5l7M9ek6HIBRFZTi1eKKxpw+HOOz1j9xHVhxZrHYt+gHKGydXkmXS4l9WrOQ8q2fV04BKDriOnOcpctjzd39tO/C8QXaHCbOlV18HIa3Su4MaMgSsSI8oCtlKqpNA1tF8n608FL3usqOtidMeZH9SiQ7XKfaZVEMXDrPTqhYnip71fIStWsQtf6O3SCwMT+Nsdqda/6Gt8dCER5amDThdXaqnS/Iy9AfWv9XuItcSS2Jg8VzfY2F4tp7jA7dylUEe/dzfeA8ECTGrvAN5srI6U1sGrQ0pnqHlu2+Vb0mFhyX2Jtcy4cKoirI6xcxR8Tj9GeskBIo8ZtGXPTZtxab85CliUEiqlxSTBWRduehfDxS1sNFtweyQLHnNw9XVaUDMLBm03LI20GHVF77r+lSnJNeQ+4ge91gXd66rT5PveQADgSvAHrBKp3vgyrb/UcjTldtoy6s8N/u+W7mxdk25uDwm6Q0e1SMJKDKrsGsrIOV2IqGywl3A6X3IMyhJ/zGYoPR2K0fyr5Kz6SirM3aRnHeUHcevc7mqR4VrZNjTtI22KNwiMFW3cAwI/8sTEStFVz96L5HmewB7HqYH7rdt+7FpncCzykj/5tnIWfLxnD3gpp5Df8+2/5rqep5qe7aaPpAIt/xsFWm0aZLT3qcNTKKobhvgyNkbRCZkk561ldPnyim40sKNNth6vptV22/yeXo+32QdVxHhitZebZGu06KaYzKZcMjKJgFqMSorRGUUqTXa8vC1Zg+E+H3aqi4w4B9tpeeAA/+U3b9VY5Eap1sFkz3S02PVXhEgC3Mu1nSxKnMb2w4VUt9hor3LSruk9/dBjR2iD9Tz+Kvx/Oq9tXyYXszKLZeIzjrI+SuVWKzOfrWhCY4kO4rZJ+lauprQVYjn3rKVqt5RSNoD+D6MfnCApfI9vZb+7ilvIJFXDxwpusLipDSuNTWrbt/SY8Bos3G7qZNlKdsI+3wN/l9vYoTfCh57LZP//dvZPPNGMvGbrrE4aisHj12lsd2ilJMCpEZJyWiSbCJdovV1IZ4+9T8SsEiM1abZFfKeCtG3siQ2Y/NubncZqejspNXYS0uPvBrBTJcN9p6pJOLLNB6cNh+fwChGBMby5J9zGfz7T3hmViTLkg6xJuuQSmftMGnXFt8GkjImRdKx1Dhzt9797wlY63NaL7tHVYgNK4ckLUKkSAbSkttNrNshcEppMqJeXVPfbqWqzkBTh/a6hfNVNj6K2cdPX45h6NRF/J/n5jFmeiyRRxrZeMHA0qxDLEzaTPbuU1S2WdRDE3iaqhA7Wu6k3VuO3y3BnkFZtxu1mn/nf/+5KsID1FM9z3d9a5PsPX0CIOaZSO+CVYna20h64UaNmSZZTtXoQN5tZHJA+sZTBP55BS++m8ADz33OhFcSefitdF5ctJurkmgIyDqm4E+WsChlOyeu1SsHviBVt3W7tbw4HbDnwcpWPQQ1IAvc/waAPTw9fPslSBn44mbQLAmZYYnuvX67mfmRyRSXtVDfLWs6oL4NapuhrgWulZu4Uu1m17lOnn1rNY/MiGZE0AqGR8Qw9tXVXAbKgU03DPzp7Xm8PCeB5O2FVHY4lR6XhygTErfbrU9K7vScuwDfNVnor/132vmnSvC3A3bhEDtYXhUmkQw3SMDzfFkj1V1Q0tDH9epO2sxQWtNFVatDzS+rjXCs1M7KbaUMe2kuY8Lj+cnkpSpJ2n/ZET7JvU7Qwq2Mm/opz7+1lG8Sd3CpRgusyuApyw2kXgNVg0j3/zDA2gxKAdYbJ+ph3qokbnc61YuYLtS0Ut7RRKOlnevNVdSa+ihp76HKCl+s2cOjQfPwnbKIX769ieHTEvnxszH4BmQwNjCDiUEZjJ8SyTOvRxG9Ud63c12b4ui5DPJeHw9ggfvfErBHSqQhsn9HPQzwreqvs2nrMtHQaWZ+dBo1PXC1ycb5mnYu1Jdzs6uSEkMtFeYernUZKbVAbkE9u0sh+zyM9otl+KQ4fvXGHsZMy2LslLVM9M/lUb81/DxwPmt2XCR580kF2APSZBOnlv5Gqv8AWOqq11GfcH0n3aCf9E9TEd8KWE+T0nyGWvfsMMOSxDxq5D0M9VYVCJUszD3XLnK4vIKrvTZiduZzzQynm6GwAxZsquSR4DgeD03i6bc3M3ZyHBOmxvNEYAqjnprLC29Gk773CstTd/YDlgdud9r0V4rdgXxHRQhg0SO6Lvk+dMXZ8z3P/7tP/3bAmh/AZupTMzlpnMEKi+JzudHmUqs0D91o52yTnS/Td/JO5DrWFlTz1NsrSc1v4avsC6zaVcU70cfJPm1kbwk891Yyv46IJPDTXB6dOpcFmUVkHawk58A1Mraf0mJvOjOxjGUdnrhsB76QSeCrj1T+fwJgaURvb59645W8vyEuZzc32uFSCyzJO82KLeXMXCSvuVnEk7IQcNICnno3l8dCY8g9Zyf5UAOHy9wUNcLUdxexqaCcOhc8+8rHbDp1Uy2LSN50mjPXm5QJKPnIkgMnJpi8qfLbAetqzQP9O25/UBIsgGWyIRIsL03adPg8+y7Vca7RxWeJRxj70lKeiMji0YgsvJ6L5Oevb2BMQALDn1vIs++uJeSLLI6VmblhgJ1nSqjotVNrdrDu2AmK69pUQsvc6A2U1Zs096Pq+TKcSpHAgoTm5b+BVoTmgNPGjO9IdcBpPxzALgc2o1GtwZAGqrdelbcxN2kbWUdu8vaqnTwaFseYwCS8XozhR08vZXRwCj5+cfxsVgpeT33C6ws2cbLUwoWqPpXbUN9jp7SpU8X65N2T8mqZ6PT9NHRoAMX+9cAV16lEd/4mYJnQyenf8/PDAKyP0sqNKM51q0vJlHiL58RkEpW3n9cXrGX05Pk8/nI6w6dGsXi/kdUFELQ0n5FTl/KLmTH8OmIxf3p5LttPVVDbC2VNRhp6Heq9Z41GJ4XX6jl/rbHfea6xkuW8ciftvUCamtDs4n6eAveHDlgaIxXur7TngKq51gK3njIj56jRXRa4tPew7+gp5sXm8PRrkXg/+xU/fzWRcxZtGpx0xq5mcOODFvLzmctUpvoNeUNfG1xvsdFghZoeB9eqm8nZtIt2g0nVQWZw2seFXd4GqxSD+CM0n8R/qOddB/Q//Q6bf5oEf4e66Dm2d59pNpspKSlh8+5j5B6r4vevxzJu6hwyzvSqhL6/pBUxcvJXPBwmySxf8atXFpKw/xrlVtQboeRFn9fqO4lOWcvFqyX9F7fbZXDTPjZZafVf9PnBAtb0o9Zqo9FIWW0b3yTsYdmGS3yWeJynXotk2NPvM3bqbB4Lns/EgNlM/iieLRfaOVllpbDGSLMLDp6/SVRaHmeu3kBW93s+VrUYRPs2ELbn93/U9gcFeCDUgfvSWPEbyPuIM/bfQF7PuDD9BIuyTxP8RTJ/enMFz7y6mI/jtrPh1G1KuyH/ZjNRa7eQsWUvFS0GpdM9vVyADgQs+b3/VZ8fFOCBjRTAAyGLxuyyazm6FR0Qv+Ek8xN3Mjt2M/FbzhK9/iQLU3eTd/gy0dm7WZKYQ3FZrfKayboPyYMQwJLqf69K+P8WsNPpVNnjAkC98FOixPJSfkmGNsvLPuFylZHiym6OX65lZ/5VylutNBrd1Hfb1KJwWe/RY5apsAb4XpjyEOU+Ax/mwAf9n93/QUuwSJuC63CodCgRQYsebZZ8CBma5L0WkscrRcCLD0PedeZx5HjAmtQ7MmXm5rEe7kanLWK5+9g/4tsPCrBIkTR0YGP7JUv1bz1tVe1rIqnyhT0uzgFryMXPKylTomu16bCYgiD61wPZs5Xj/ff5R1AdcI1/OmBPAz0NEjNMPiKpAwceyV+Qz51jQk8iwJK6alWzPqVUJatHYnkSEe533qg/VddUGTz9tramgwdaDVKPgaC1v/zH/ftPByxVl0Z5pFT2pXR3d/fDlO/ysYg+6P9I5qR43azaVs/Esfb2YjHKW6tAJip9fX2IWad99CmYmik6/8Pg1n9p8QH/F9nC/xcAVnFuaZ/tSwAAAABJRU5ErkJggg==;" vertex="1" parent="1">
          <mxGeometry x="630" y="238.41000000000003" width="61.35" height="51.59" as="geometry" />
        </mxCell>
        <mxCell id="_7hgCI2BtyIkv9aABqNP-21" value="" style="shape=image;verticalLabelPosition=bottom;labelBackgroundColor=#ffffff;verticalAlign=top;aspect=fixed;imageAspect=0;image=data:image/png,iVBORw0KGgoAAAANSUhEUgAAAFgAAABKCAYAAAA/i5OkAAAgAElEQVR4AeWcZ3QVV5ao+fvWrFnvTU+3MVgChMAEg2O3OyfbbRvbBOVEcHY7trOxjckZRSShLJTIOecgkEAgMgJJSCjncBWubg7fW/tUXSGYbj+7p6eXZ961D1W3bqnqnK/22WefvfepQQ7AjXwc4LaCrRscPeDqA6cF3HKG/nG4QIpL+yO3G+xusLjBCpjlZ/16Lqcdu6lLu46rB9xdgBHc+nVNJrC5wQbYnchFnTiwYseq/rPjVDfSqqYurN9XVVirtKdmautwOXGq+sqJUhO7XqR2dlVvt8muVVpOcYLZZMdhV7vylT4HtHZbMVjcWEAVk741Y8eOGTdyxHinuK24XTaszjvn98m1gEEeIHJ3t82oA+mDPgPYBbBL/tceglt9pa/PTXuXncZ2G7WtZuoMTlr6oLbTxq2GTqoaO+k1CznhZsdt6cFt6cJt78IlD9BpB4dDY2By4DQLAA2w7T8BWJhr3F243DYcTgsOpxm3S67vwG6yKcjy3Iw9ZnWynC9gu00OyiobOVF0mR0H89l3oojzpTVUtffRYgaDQ4Nn0+spIuV29GrtcUlbpf6aoPW6tPON7nsAY+8DtxnsRrDJvia9PX0OjHboskBrL7T2QS9aaXdBaTsUV1toc0ObE7pBPeMemyYNVukcmoyBNNZmAacu7nIL2bVblQRrgO3YcOCQh64ekk7hO0iwnO9Wf+fAjV0V7UlqUtLdbcVqBel9vSY3nT12mjotFF29Re6W/Zy8eJNbzd1cqmxk0+ECUrfs48C561R126k3u+hweUBLZxbpN2sNkB5sc6sOKY9TkEvTBgl1rfFSAWl8Dxpou/qhz+Kk26IBE3C1fVBQbiVuYxEhHyXwxLSPeWzqJ/xh5kImvvgXnn9jCZ9Ebib3yA1utkCPSIcLqltNWi936bRtDpxGqyY+LrBaTAqwA4H7VwAL3P8HYKtd5MutA5Y9l5Irt9up2thrcak62FxgcoLJDUVXKsjddoA9J4pp7HFR3tzLlZpObrb0UdXtpKTFyKELt1i77xRr959h3/kK9ZsoCIEo/KSIqjQ77oCVY3LTuwFjx2XtBbfoLhcNjW00dpiVNBqAA1fNfJlcwC/DlzHymY8ZP20eT0REMjFoOSNe+IrHp0fycMgSxk/9mkcDvibkszQSd5dwpQ3k70UyDEZROzosaanUyqkdcCupdSjpvUuCPeffC1iOS7nn0381lxOr04Hd6cAi+lbXpaJbKxq7yNq2n+2Hz3CrxUhlh426Xqg3QZ0JKnuhtNNOSZuFay1mLrXYOFbew7r8cpK3n2bLsWJu1LWphySguywiFBpgaaLJ5FLkB92pn0iwDZfdpOldpHvbFdwGMyTtuMqTocuZELSKcYGrGBccw7iQ1YwJjWdceCITZqbgPXUlPv6RPBQaw4SQSEa+8A2Ph67gi/RznG3UVEevHbr7dKUuwGwOrH0iD9KlRS14AGvSpuon/3xbuQewALU6NZ0o3VSKNF6Bbekhe9shUtfvpqSuUw1VzVZoMqMktrLbQVmHQDUquOVdTip63NzsRrXhcidcanax/1wZqVv2kLllF4VXrtFuttJitKiBTUm21NcJdwF22UTxu3BJl5VuBAjc2E1n+UXYQh4Oi8U3IJ7h01YzMiiJkSFpDA9O4QH/RIb6JTDu5Vy8/RMYEZDAxFmZTIxIwmfKCiYExzLp/QyutGiQO4zQ3mnrh2YziUbXUIglIbpXKilHFGAB6AE8cN9zzLOVjuECu+MOXLlOZ5+dmtZudhwtYNvR05TUtSsQHXaobDNS1WWhzujitsFKTa9TlUqDlYpOC7cMFm609nKhrptbfXC5HS7WWylpNlHRYeRKdR07T54kcd06DhVf5nJNMx02bbAT42CQeviqFWJ+OVVDZPwRSZNunbG/hN9MX8jIF75mTEgiwwNTVfENy8Y3Yh0+YbkMD8vBJyKPYcFZjAjLYmRoJiOCUvAJXMOooCTGhaXwWHgsr3yTwy2DZr509IFDHwDsZpFgUUsOZZp5pE7/WdcnIu76xwP03u2A5+CR2voOIyfPXSN3236KbtymrsesxoQ2i4sWk4tWs5tms4tWK1QbTNT32lSp6uxDSk2PVX0X4FebLFxptnGt0UhJs4Ebza3caG7mWlMjlxsa2X3uMnmHC8nak8+Bs6XUtjjuAazbnYZeBz0uOFNh5tm3VjJ+2jc8GLAS3+AkRgRnqiIwtZKNd4hWhgVna5CDM/EJTsc3KJ1RQamMCkpmfGAsj/nPY2nmSWVldDs1CRVkFrMMhRpgGZgErADSAAtYD/J7AYuq0dWNEhLoNYppppnYRwousuPQaY4WldBuhXarG4MTDDYXrX1al+6wONT3drNddfE2k41Oi412k4XGrh6qWtupbm2ntqOb8pYuSho7KGvuoLKjg5tNjRRXVVLcUMv1rl4K6jo432bhZGUPuUevkbjhhA5YgdUqKpWzuqHJBN8kHWTMS7MZOW0x42Yk4ROcqsENyWSYlH7IHthZjBApHgDYA3lMUDwT/JYQ8EkqBRV2BdnolDmGWBXSkT2ANbAewDLZEHNL+/3bATtseg8ErpfWsDQ6hfSN+ym8Vqd0rag8sVFFX8q+mFMGq52W3j46zFa6bA46TVYaO7uob2mn1dBDr8VOV5+Fhg4DTd09VLW1UdnSRJ2hg4a+Hm73dHOprZPTDZ2c74KjdRYO3ray45qB+WkHBwAWSXC56e4xq8HgfJWFX4bNZ8jTn+ETFMPI6emMCBHA6d9aRHI16U3FV0mvSHAqo4OSlC4e9fxsVm44p9RPa58do0XGdgGoTQYEoQijSK9WBLBVL/fqZF2CRfEOUBc9fS5uVDRztLCE0ro+dp28zsrUzeTsOMD1qjpN/1oc1LZ10Wa0IgO+0eHGYLbS3m1UQC0OsZF7qayppaa2Xu3XtzbT1NVGY3cH5Y31XLx9m3O1jVxsN3PJCBdtsK3CyZzNF3jh8xTGTvmYQVrFtAq6ndDU2qsqkLr7Eg9N/ooHg6IYOWMtPwlMwTs0lREhyRroAVuRbJ/gZCXhsi9gB8L1qImHp6dy/x+/YMa8ddw2ofSe0eaRpb8FWKwLmZ4K5AGA1ZO4B7AYo27twcgsc/+JK5y6XEdRWRdNFrhY0UTOjn0k5mym4Gpp/1S4ywotPWa6zE5auo00tXfRbjDS02ejz2Sju8dEa2c3TV0GmnsN1BkMlLe0U9beS1kvXDDAoQaIOtbI5IXbGRmyiDGhixgXNOduwDIHkClwpx3emJvBo2HLGD8zFe8ZefxbUCZeYekMC01iWGiy2mqwRXUk4xOib4OT8b236MDHhKYx2j+KP7wRx/FbvdqMz23D7hAfhYAWxXBHGDUJFsB9CrKmk9Up2j9K/0rP0yXYBTarNo2XKfypi9XsOVXKyvS9RK3dR96BQi7VtFHWZmZHfjFxOVvZsO8kV2+30mqGBoN4QTSTrrGjj5qGTkxWsNihuslAU4+JW60GrtW3U2Fw0gSUGCHxcAOBC/cwbnoig6cs4/6py5kwK4GJYUtFRehS4NaMCBGCFgs888oiJoasYKjfau4LX8fgWVsYEp6Od1iSKhroJEaEaEUBFsgDQGtS7ZHsdLympTBhejqPBi8h52SlmuX1Osw4nOIWEVWhz/I0QdRVhAdwn7IwBLL6KHG+W4KVr8EN4nK4VdvDkaIK8q+2sLewlvM1VvacryR11wnSduZzvKSOGy0W8kvqWHegkOSNByi4WktJjUG5A4yiNmzQ3uOioc1MTZuZqi4bTTZodsLlZsg5Ucv7MUf5zRsZPPBiFD96PppRM/J46NV1eE1byeCnRUX0A9akQIabinZ47rXljPJfyr9PieXHEZu4b9ZWBodn4hWepMpdoMMSGRGa2A9bk2yPKvHo7Uy8AzIYF57BOL+FpBy8oQBLl9Pgig0+ALDe1cUudmLEyd8ALNLrkWDpAG6tH5RWGdh9vIT9RTVsO1nFhQY35xscnG0ws+dSPQk7ThG76RjbCm5ysc7E7W7YffoGaVuOkLXtOMVlrRgdIHOiNiM09ECNCWULF9a4iN1ewpQP1jLiuYV4T4pl4sxtPDhzFz96MZ37p6Xx5FubePLl1fog51FueuUu3e4j5JNkBdg7NJ2hr+7lX4I3MDg8C6+wZFW8w5K5t2iqI5lhIal/paQzavoGZR+PD1xKxtFyBfh2U70+wOkSrA9uHsNMAyxwpWj6VaqrSfHdEixWhPzWa4bbTSZOXKrnUHE9Gw6XUVwPx8u6lAlV1GDjUhsU1pjYVlRB0s4CVuUdVBJe0urkeqON3L1FRKbtZOfRa1S2OmlzwNVOWLW1lKffWM2o579i9EtLGBeUwKjgtXgH5uEVvJkhARvwCsjFNzAFn+fnDXBX6pDFLVDdCi+8upwnpq/GKySDfw3axANvHmJoaLYOLh0B7x2aqYpXaCZSBgekMDQ4nWFhGQwPzVDnegenMDw4ieGhaTz48mbun7qasf6L2VDQoDxy7T09OF0yiRXPlyZ9ogc9RfOoySBn7reG7+hisZHvqDiBLr+Jf/pmtYGjxVXsOlPB9tNVnKkyU1jVS0F1d385XdPNwCKwI9cdIvvABYpu93KjGXaeLCd182kic87x/LtbeDQ8D99p8YwOiGFsRAKjpyeqMUnaPTgwj6GB6/H2y2N8cDaP+MUySFSCkgj5xwUdHVZae+CbuL2Mm7KQ0dPX8i/+Ofxkxg68QrN1E+2OHewdkqWODw3LwjssG++wtQwLW6s9AA/c4DXK+hg8LQnvaXH8/q1kjpdb6LBCn9WGSxz79wCWI54Bx2Om3ZFqvc5S4bvKAMA1HRy9UKkBLqjkTLWJwupuCqs7VCmoMXBaL/m13UjZf72R0j44VtZJzMbjJG0rZG9RrbJA5iXn80hwLj5+6xk2NY0RwWsYGR7PsPBYvMMS8ZqezvBZmxgWsYVh/usYE5DJhClRmgQrwjrgxnqDcnBtP3Gbob95h/HTk7g/NIsfBWapyYU22UhnWIgUTYI1yFmMCM9VcB8ITsUrKFlJrgyCI0OTGSVmXUAiI6asYPq8TVQZob5T1IILl/ifFU4NkDz0OxIsMEW6xV98j4pQ0it6W9BrU2lphjjpbuqA9xSWs+N0BUVVJs5WdVBY065KQU0Hp2u1kl9rQJUqA5faHRy83sSZaiPnqs3EbzhBswNmJxxh2KRohk5OV2rONyyJEWGxDA2OZGhoPMNmZvJAxDq8wjbhFZjNqIA0xk9Zrjt7pFaqZg4sfQ4cbrhUaeaxKZ8zxn8J41/JRqB5bFwPZJl0qBmdDlrUydCgFIYGrGFY0Bp8QpORiowOTWJUcDyPzUrjoWmLmZemTZc7ZJiWSYZDXKSao0nqIbjkFymyL142DbJMOjwfUQ06XLXVBmkP4NLqNo4XV7C3H7CRs9XtnK1p5mx1K4U1rRTUtnK6tp382g4FWCT6bEMfx8vbKKo3c67OytL0PXQCs9ccxmfySuWHGR2RxugZaxgRFt0PeGhEBv8WkMGQ0HUMC83hwZBUxvv3m2kOECNYQjn6oNxmgjnxexj9/MeMD4tiTESictx4bFwPZE2SNYl+IDAFKcOCxIJIVpLrG5yIT1Acvn6RjPNbwovvrOHQJc2bZbLZVdhFxbecEgfUnPwCySOtmr4VsB4p9ehdD1z5G9nXAMsTEAkWwCeKK9hXUMqu0+Wcq+qhqKqVszWNCnJhTTMFtc2crm0lv06DfKquk5M1nVxotXHgWj37rzawMvcA7cAXyYcYExzJyPAkfCMSGBmxWkmwV1gsQ8KSuD8sgx8H5+AVsZFh4bmqx47xWyATDamcgJXIn2xd9HSbVRctrrbyh5nzGfXip4wJWsbooHjluBHnjYD2QNYkOR3v4DR8QtPwDU/DNyyFkUEJDA+IYYR/FKP8ljP+hS+JzCuiUw+79IkXzdEN7h4wtWvhJI/JpdvCAluT2nvB6vWWug8APFCC7wbcRVF1M0U1DQpyYW0jAvl03R3IhY3dbL9UzoVWCxfb7BQ32Vieu5+KPgF8AN+gpXiHxjIsJBqvoEi8QmIYHpGEV0SmUqP3h29kaNhG7vNP5QG/GB70nyeAB8K147JYMJsc9Dm1cM+ancU888ZSxvvNYWxQtJJicUHeJcniowhJVb5hgTs6PF09weH+cYzwj1FO+Semx/LOsl3cbIUePQpttYpakFlcD9g6wWkGcf54xq4BkDWzbABUEQgl8R7A2pPotyJqOjheXNkvwcW3ewYAbuCvAm7uobC5h6IWEwfLGjlQ0kDU5sM0A19lHGKY/wK8w2IYERqHd1A03oEJjJDZbXgu94fkMSRks7Ik7puWwrgZKTz9YSqDVCU9ldWlRyrZ3ONSdqp0j9lrdvOz0LmMD4pkdJCmKjyQPT4IAewVkKBUw4NhqZr0+sXiGxTLo6+k89S7azlRpjncSxssyoDXJNOKo69NA+0B7NEPuvhq5wlAUQMC1ANVgEu5M8CJIjG7UTMyMdP2FlSw63QF56qMA1REowJ8R0XoaqK+k4Kmbg6UNlDQ0ENBbQ/L8vZS74Z5OccV4OHT4xk1K4WRYZoqVB7FkPXKPBsSvImhQeuUT/xPs3fxfvIpHbBTwtkuxNkjbZMRvKbTTa1EHoBqO6Qfb+C3f16rIhqDn5fQUALjZ6zlwYgMNap6ByYxKiJdTa3Fbzx+RjpDXlzJA5OX81bydc4boVXcg8DNRjtVbWY1iIn/19TbqQVcJeLsCedLRYSbTOH1IiBdVpMuuRLzEmnX8Mu/4jOQgVHcoGWNVo5dbGDfuTri1uez/0I9+WVNnBefbaOBwro2ztR1Utxq5ExzN4crmyjutHC4soXDt1o5VdejbOT4nSdV+7/OPIx3wEK8QhOUH0baOzwgE9/QjYwI2cwDfhu4b0ouw4PX4xuazuQ5e1m8pUQHLI2SbusAsZwMLtTIWW2Bqx1QUAXbLll4b80VJn11lIkzs1TISCIWXn6JeAWIxZDGkGnxSoJHhaUhUvzk2xuZFXeJuFMuDtZCcRNca9Igi4u9oddFp1mmwiKEnoFW8iX0kL4OWBdknHZdWt3Q1yumnaafJQVDAo0iGAY7lNT2kb71NPPit7LhRAVbC+vZkH+LvGNXOXS9jjN13eRXdXC0vJkT1R0UNPVS2GzkSGU7J2u7udDh4FyTmf3X61mRt49aJyzbXMTwwKUMC0/BJzwD35AsRoduYHz4dkaHbGW433oee30fY8PFVo7hhc82Mjstn0EysLkcbmWa9Tq0LtzohD1Xenl/1S6efm0lv52xmF/OXMWv/5zL2LB0vKfEMcwvnuGByQyTEFJQGj7haxnz8joeeXMTPqEp/OvTi7hv0nIefT2Ln72VowKlT70aR8SnGazMO0tBlY02ND0vETmjpMUISZUvoQNW5PXDYrbZHCqfQc6TU01Wl7IYBKxMTCpb7ew4WcKmI9fZml/JvksdpO67zvyMYyzJOcnGgkoSdhYSs+Uk6wrKOFVr4lybixM1RvbcbOVsi43j1d0cudXBkbI2jpd3kL7vHI1u+CRhDyODItUESkV1AtcyKiCX0YHrGeWXx4gp6QyfsgbvF1Yxxn8Z/l/k8tr8HAZh04KPUknJe9hS2MSMuRuY6D+P4X/6nAn+i3giZBmjJy9glH+sAisD3LiZOYx/eb0C6xWUqswzMdFkXwKhMj0WS0JUxUOz0pgQnsjYyQt5eMo8xr/0JVM+TCTzZCW3zNAhaUYeNSDSa5MEA4dEL5UKUNx1ae3q7qOrV4L6mjoQsA3dcK6snew959hReJv1xyoJ/EsUvwmfQ8jsNNKP1nG4wk387qus3nmB1EM3yDtdTdKhElZtO0PmyXJO1Fk5fKuL47d7Od/k5FyDjSMlbUTnHaLWAguyTuATuErNB4YFpuPjn8ko/yzGBuQwPjCL8RJUmBLJk7Pimeg/l1+FfsUny3NFRWhpCTKyFzfAG8t3M2zSHHymrmTCjGTGiA07bRWj/aJ5aHomD4ZmqGiyT0iGklyvoHSGh65l5IxchodnaRUISVX6eFhQIj95cQWDX1ihus0joWt4ODiex2ck4Dt1LhPD5hO58wp14iKVSKxIrJCTuJXSr5rtK4BlT5JgZCvC0GSwqZyEy5Ud5Ow5y86CSvLLjcRvLybzyG2+SjvOH19bwTNvxTAv5zyvLN7KWyt2kHTgNrmFLSxef455OadYe6qGvLP1rNhyhp1XWtlxsVn5qs/V28kvNRCTe0RF1pevK2S4/wq8QtIYFbaWsaFZjAvKYpxfCg/5J/JIcAw/DV/BI/6zmfL+SjafLlepACqiIQPDuQojv5+1lNFTF+AbtFp1deny3gFadFjcjN5TExg6NZ77pyRw31QpaxgiKiIsB99ZG/AKXqsgi7NHnDxisk14LZeJr+UybnoGg59dyQi/BDWz8w2JZUTgYn77Thyxe67SImpCJjkCWRVdJ6tZnM4daOmyKcCNPZC9/YRSCdea3Gw+VcmTfn8h+NM1/OmtSN5auZsz7bC7HF5ZtpeHAxfwqP88nn83kfm5F9lXBrtvOIjadUPBTj5STtapKhJ2XyJl72W2FlRx7Gob6dvP0GyBrxP3M8J/GV4hKYwOz2RsSAY+L8Xh/cwSRk9axCOBC/jVzPkk7rtAqVHTBt02Cdu7obSqm7nxO/nNzFWqKw8NSOZ/Pbeaf5m0hpEztjDula0MnpzImOk5jJ2Zx7hZGxg9cx0jw/MQP8T9gRn8yC+Z4RG5+MzIVR62n0xLYIh/IiPDUhFJ/tFzK3j8zR389J29/NsLcfx4WjSPvpfDvz//Kb94bQlFDU4V+ZW8MTUgKAnWAqGSMWl2Omk2mJFw/8GCa+TtyqeotI09hRUsyTjAml2XSN5fRvicbF5dso28YjPzNpbwatRhog40k13sIHJ3LYs23sDv81xG/Okjfj59KYs2XWHThV5Sj1YzLyuf1Tsuk3v0Fln7rpG1q5jI9H2022BJxglGBq7AK3iNmgOM9E9g9JRoHg9bTdCXm/g8+RgXulCCIlNrGVcMfb0MkpDI9mO3+HnA14ybtowHpsSoubTvyzt5IHQjQwNy8AnOwScok+FBIplaGRqUpiRW86DlKFemeNS8QrMYFp6F78w8Rs7IVm5KcVX6Tl/Lv78Uj++M9YyYnsfw6Wt58OW1DJ26hHEB3/DqvAzqe7WsH5dNJhGajetyuTDZnBgsTo6dvc663acouN5EQx9sOVFG2AdR/DrgC34bNp+PVx/hXBvsuwVRe6t59sNUhr/wKb96I4YFW26w/zYkH2tVmUbhC7byy5krGTnpYwV6+sJNRO28ScqRGlIOVLBqXRFpe6+Tua9EmZafxe1nXNBifINW8mDgciYGreCPr8XzftR+9l3uVgN2k1uzkASuFRcWWx+DGnrhD+GreDx4NWMCk/EJkhB8rio+QdmMCsxUx0cHJitXpUisx3smML+96N425TdOVaEmFREJS1WjsUSfxwQm8nDAcn7h9yX7z9xGLBmT2YrTqfmHu412yqo6SF13gCu1Pdxsdys34rsLs0nbVcbuIgvxm6tYnHGdvVfhraVHeebNNbwTc4SYfbdYfaSC+GM3STldyZSPV/PLiPnMmL+exZuvsvGylYglO3j2ozR8psxmXOA8fjprJe+vOUVmYTdJR1tYsrmEORlFvLl8Ow9N/YTxk9/n1+Ff8u7SXHadrVZjh0oH0LNxZYzQjB/NMTVoc347D/stY9S0GJUoInkNkkAiW8lpkHD72MB4JK9BZm0DnTvfZ1+iH17h8QyNiGdoeKp6MCOCshkdmM4E/zh+5reA9+Zl0GiUrCItL00qm5G3nZWr13GwoJJyA+y71MArX69h7B9e5bFJn/H8q4l8Fn2Wg9cg84iFVxcc5uehUUz+OJMlW66wtqiJlNMVRB24yKyFWby+bANBX2YQf6iKnaVuvsy9yLytN1l1oIGw5Xv55Z/X4PX8F/zy9TiW7qpk41UXHyadYvTzH/Bk0Ee8vzyDnWfLqerRUrBFowlQ6WlqZiQzy/65Pgx6Z9VWRk/7Bt/gKDVD8QpLVdFjCdFLYNMnNI5RIdGMDo5WLsdRwYn8PcUnJBGv8ESGRCQzJCxLufW8QiSElKt6iEjx41M/4kJtn0obaDQY1WC2fudhopI3s25vMbOjcthwopSTt0xsPtXAN2tO8OKbiTw8aS4Pv7iIkM93sHxjLduuwvYSWLKjlKc+iGPk1Pf46cvfkHy0isyTjRyugl2lTp7/yxp+NmsZP5u1gpdX7WNbGWRfMLN8dyULN13j8/TTPPXGKh71/4KZ36Srycq5ml7aJbdYt73FQBArR/voLtSBgP/45iJG+H3FmFmr7wAIT2VouMTcEhkWFodPaLQOOU551MSr9n2Lb0i8UhESmR4clsvg0I0MCdmKV/BGpZbGBsXysN/XRG08rezx2+19yinUbkElj6RuOs7202XEbjzJnITtLM8+ydYz7Ry+ATFbbjHtgyzGT5rHuBfm8dPQlXyQVMiGK07ijjXwdtIRPso4yYbz3Wy+0MvLizYRu6eC5dtv8MbKvbwXf5SMgnYuSe5zGyQeuk3EnLX8bsYcnnt9ocrQKapzKLeBzBUErqgFgSvS63A46DPKMglt3LhLgh8Kns2Ql75k5MwEhoYnMTgiXUWPBYQEOAXyiNB4Jcni2/17pFf+RsL5EhQdGpbJ4LB13Be2mftCdzA4ZDvewetU3ttjEat4+vVlqiEyle4UfSyzPYlQ1PdRcKOV7H0XSdx0iviNhcxbs585CQdJP1jNsVuw/bKTOZkXeCx4ET/53Xs8ErqUp95P5b2U0+ypgs0XTUx6J55H/b7ioZc+I2Lues62waVuOFELSQfLCf1iDQ+/9Gd+F/oJn0WtI7+0Qw1yArZdoswDJFdsHE16dcn9a4AnBM/Ha8oCfMLWKNWgum9YNkPCslUgUyLE4q7Rf78AABDHSURBVDwXQHeH4z1h+e+z1SLOQ0M1Cb4vdDuDQ7cyVFRFSKoanR8N+JJyozYad+l+406TNhWWxrXZoLwVjl9pYfX6E3y+aj0fLlvPhyu38GnsPvIK2jhQBgmH6nl56R4mBi9m1Evf8Ic3E3k7cj/Jh+qI3XWLVVuukV8LhU2w+0ov89IP8+wrc/lN4AfMjl5HcVUXjTLLlEx4XWI9cULRu31WhxqMlWrwgBUvn0RolHdP8/ANejxkFeNC4hkpkYjgbCVN3sEbkCL6USwJ38AsZaZJFFmLIIv1IPvffSsDokf6xUHvHZzLEFEToRvxCslVA6gkGf4iYhEHr3WqxnXr3jHJTpehQyJM0jhpaKsJGnuhvM3O1uPX+CIqh/nJO3l/eS5vLMxhYVYB2y9Z2HHFxSeJhfw0eDFjJ33KuEkfk53fwi0rnGuEBWlH+W3wp/wh9GNe/SKSjYeKabFqUHslEVKfRUoSoMdCEHfJXTrXaaOvq11fGXAP4CcCl/FEWBKjpsYrk8w3UIDmMiogm9EBWSo6Ot4vnTEBmlNdBj8tZP/9ttIDxJ88IWAlYwPjVGREnCbiTxXgErOTpQgPT/mU9J3FSmq6jE6VjiqN8Th6ZPGKpBZIY5Vr0gXNfS5lLh08X0ZM3gE+WraW179OZebnqXy4Yhdp++s5USlWRiPHK+FiK8RsusBzL8/jZ5PfZvqHK8jZW0R1h0vd1/MQNXMLzGbpO/1UFVunw4ZbrcISvSt2u/h0dD/1wEHuwd+9w8+DVjB+8jIe9otjgl+iVvzj1XeJ7T8+LZpH/KJVREOsidHBscqq+D7b8UErecJ/Pk/6zeWxgEUa6KBY5euQSMmEwOU8Mu1rfhPwGUsStmgptI1tqKx7h/iALdp6Omm95Hfp7RUdaHO56bE5VfJVi8nNxVttKnHkq1UbmPXxaiLej2fWx6nMTz5OxoFbhPwljj+EfE7Ie8tYmLCVijZUPp5c2jNw9evW/sxPbVbZP4ANVAsK7IAgwEDAny9bx9yEQ3y0cg8fRR7iw8ijqnwUeYRPVh3ik1UH+HTVPj6J3McH0Qd4/+8sH0XtZfbK7Xy1ciufrdrNh1H7eC/6CO/EHFXbD6L38fGKLcyN3siG7fn09DiorqgEgSvZvWphpMQNZY2ADRwiMSLHWsOV495mV4tdBJSsIKrtgEOnK1kSu5VZ70US9Ofl/C7gY3419T1mR66juKJXRW3kDhIFkavdZXJ54MrqK1EW/VB1a8Fz/4HH1VW0py/XGiQmhxS13Ep3WcqIKUWOSfGcIx3l7y3SCEnsliLXUKOyDFp6kUiH3Ed+Vw4fF3Q3t2jhfEcXLlMbOGXZl6zUtILVCJZesPbitBixyr6+rs4ifmJdb4tEthrgZpWRtdvOsjhhGycuN6kER6mT0uddutNf16xKSj3wFGTP4CWPQOANLAJ74Hc9uq0/rEFtRgM1ba2UNzRRb+jVSzf1hm4aDF00GDppNLTT3NlOm+TNtv29pZv2VjNtrRZthWingyqDi9tdLrWt7XRxq6YbQ6eL1vouTO1GelslVifSI9ELHajFpAFWEfB7Ap/ScJdb5QLqy000x5w+UAnMymab0rOy323WpLajS1aDesRXAHkmDALUUwZAVGLuAXnvtv8pqd4wSMuYkXXBngUospXvUiSbRvLCPHIr3UR0zd9TxP2oPXypn1Rb73j9ek/9Lj9I62WrGu3AYhV5l7M9ek6HIBRFZTi1eKKxpw+HOOz1j9xHVhxZrHYt+gHKGydXkmXS4l9WrOQ8q2fV04BKDriOnOcpctjzd39tO/C8QXaHCbOlV18HIa3Su4MaMgSsSI8oCtlKqpNA1tF8n608FL3usqOtidMeZH9SiQ7XKfaZVEMXDrPTqhYnip71fIStWsQtf6O3SCwMT+Nsdqda/6Gt8dCER5amDThdXaqnS/Iy9AfWv9XuItcSS2Jg8VzfY2F4tp7jA7dylUEe/dzfeA8ECTGrvAN5srI6U1sGrQ0pnqHlu2+Vb0mFhyX2Jtcy4cKoirI6xcxR8Tj9GeskBIo8ZtGXPTZtxab85CliUEiqlxSTBWRduehfDxS1sNFtweyQLHnNw9XVaUDMLBm03LI20GHVF77r+lSnJNeQ+4ge91gXd66rT5PveQADgSvAHrBKp3vgyrb/UcjTldtoy6s8N/u+W7mxdk25uDwm6Q0e1SMJKDKrsGsrIOV2IqGywl3A6X3IMyhJ/zGYoPR2K0fyr5Kz6SirM3aRnHeUHcevc7mqR4VrZNjTtI22KNwiMFW3cAwI/8sTEStFVz96L5HmewB7HqYH7rdt+7FpncCzykj/5tnIWfLxnD3gpp5Df8+2/5rqep5qe7aaPpAIt/xsFWm0aZLT3qcNTKKobhvgyNkbRCZkk561ldPnyim40sKNNth6vptV22/yeXo+32QdVxHhitZebZGu06KaYzKZcMjKJgFqMSorRGUUqTXa8vC1Zg+E+H3aqi4w4B9tpeeAA/+U3b9VY5Eap1sFkz3S02PVXhEgC3Mu1nSxKnMb2w4VUt9hor3LSruk9/dBjR2iD9Tz+Kvx/Oq9tXyYXszKLZeIzjrI+SuVWKzOfrWhCY4kO4rZJ+lauprQVYjn3rKVqt5RSNoD+D6MfnCApfI9vZb+7ilvIJFXDxwpusLipDSuNTWrbt/SY8Bos3G7qZNlKdsI+3wN/l9vYoTfCh57LZP//dvZPPNGMvGbrrE4aisHj12lsd2ilJMCpEZJyWiSbCJdovV1IZ4+9T8SsEiM1abZFfKeCtG3siQ2Y/NubncZqejspNXYS0uPvBrBTJcN9p6pJOLLNB6cNh+fwChGBMby5J9zGfz7T3hmViTLkg6xJuuQSmftMGnXFt8GkjImRdKx1Dhzt9797wlY63NaL7tHVYgNK4ckLUKkSAbSkttNrNshcEppMqJeXVPfbqWqzkBTh/a6hfNVNj6K2cdPX45h6NRF/J/n5jFmeiyRRxrZeMHA0qxDLEzaTPbuU1S2WdRDE3iaqhA7Wu6k3VuO3y3BnkFZtxu1mn/nf/+5KsID1FM9z3d9a5PsPX0CIOaZSO+CVYna20h64UaNmSZZTtXoQN5tZHJA+sZTBP55BS++m8ADz33OhFcSefitdF5ctJurkmgIyDqm4E+WsChlOyeu1SsHviBVt3W7tbw4HbDnwcpWPQQ1IAvc/waAPTw9fPslSBn44mbQLAmZYYnuvX67mfmRyRSXtVDfLWs6oL4NapuhrgWulZu4Uu1m17lOnn1rNY/MiGZE0AqGR8Qw9tXVXAbKgU03DPzp7Xm8PCeB5O2FVHY4lR6XhygTErfbrU9K7vScuwDfNVnor/132vmnSvC3A3bhEDtYXhUmkQw3SMDzfFkj1V1Q0tDH9epO2sxQWtNFVatDzS+rjXCs1M7KbaUMe2kuY8Lj+cnkpSpJ2n/ZET7JvU7Qwq2Mm/opz7+1lG8Sd3CpRgusyuApyw2kXgNVg0j3/zDA2gxKAdYbJ+ph3qokbnc61YuYLtS0Ut7RRKOlnevNVdSa+ihp76HKCl+s2cOjQfPwnbKIX769ieHTEvnxszH4BmQwNjCDiUEZjJ8SyTOvRxG9Ud63c12b4ui5DPJeHw9ggfvfErBHSqQhsn9HPQzwreqvs2nrMtHQaWZ+dBo1PXC1ycb5mnYu1Jdzs6uSEkMtFeYernUZKbVAbkE9u0sh+zyM9otl+KQ4fvXGHsZMy2LslLVM9M/lUb81/DxwPmt2XCR580kF2APSZBOnlv5Gqv8AWOqq11GfcH0n3aCf9E9TEd8KWE+T0nyGWvfsMMOSxDxq5D0M9VYVCJUszD3XLnK4vIKrvTZiduZzzQynm6GwAxZsquSR4DgeD03i6bc3M3ZyHBOmxvNEYAqjnprLC29Gk773CstTd/YDlgdud9r0V4rdgXxHRQhg0SO6Lvk+dMXZ8z3P/7tP/3bAmh/AZupTMzlpnMEKi+JzudHmUqs0D91o52yTnS/Td/JO5DrWFlTz1NsrSc1v4avsC6zaVcU70cfJPm1kbwk891Yyv46IJPDTXB6dOpcFmUVkHawk58A1Mraf0mJvOjOxjGUdnrhsB76QSeCrj1T+fwJgaURvb59645W8vyEuZzc32uFSCyzJO82KLeXMXCSvuVnEk7IQcNICnno3l8dCY8g9Zyf5UAOHy9wUNcLUdxexqaCcOhc8+8rHbDp1Uy2LSN50mjPXm5QJKPnIkgMnJpi8qfLbAetqzQP9O25/UBIsgGWyIRIsL03adPg8+y7Vca7RxWeJRxj70lKeiMji0YgsvJ6L5Oevb2BMQALDn1vIs++uJeSLLI6VmblhgJ1nSqjotVNrdrDu2AmK69pUQsvc6A2U1Zs096Pq+TKcSpHAgoTm5b+BVoTmgNPGjO9IdcBpPxzALgc2o1GtwZAGqrdelbcxN2kbWUdu8vaqnTwaFseYwCS8XozhR08vZXRwCj5+cfxsVgpeT33C6ws2cbLUwoWqPpXbUN9jp7SpU8X65N2T8mqZ6PT9NHRoAMX+9cAV16lEd/4mYJnQyenf8/PDAKyP0sqNKM51q0vJlHiL58RkEpW3n9cXrGX05Pk8/nI6w6dGsXi/kdUFELQ0n5FTl/KLmTH8OmIxf3p5LttPVVDbC2VNRhp6Heq9Z41GJ4XX6jl/rbHfea6xkuW8ciftvUCamtDs4n6eAveHDlgaIxXur7TngKq51gK3njIj56jRXRa4tPew7+gp5sXm8PRrkXg/+xU/fzWRcxZtGpx0xq5mcOODFvLzmctUpvoNeUNfG1xvsdFghZoeB9eqm8nZtIt2g0nVQWZw2seFXd4GqxSD+CM0n8R/qOddB/Q//Q6bf5oEf4e66Dm2d59pNpspKSlh8+5j5B6r4vevxzJu6hwyzvSqhL6/pBUxcvJXPBwmySxf8atXFpKw/xrlVtQboeRFn9fqO4lOWcvFqyX9F7fbZXDTPjZZafVf9PnBAtb0o9Zqo9FIWW0b3yTsYdmGS3yWeJynXotk2NPvM3bqbB4Lns/EgNlM/iieLRfaOVllpbDGSLMLDp6/SVRaHmeu3kBW93s+VrUYRPs2ELbn93/U9gcFeCDUgfvSWPEbyPuIM/bfQF7PuDD9BIuyTxP8RTJ/enMFz7y6mI/jtrPh1G1KuyH/ZjNRa7eQsWUvFS0GpdM9vVyADgQs+b3/VZ8fFOCBjRTAAyGLxuyyazm6FR0Qv+Ek8xN3Mjt2M/FbzhK9/iQLU3eTd/gy0dm7WZKYQ3FZrfKayboPyYMQwJLqf69K+P8WsNPpVNnjAkC98FOixPJSfkmGNsvLPuFylZHiym6OX65lZ/5VylutNBrd1Hfb1KJwWe/RY5apsAb4XpjyEOU+Ax/mwAf9n93/QUuwSJuC63CodCgRQYsebZZ8CBma5L0WkscrRcCLD0PedeZx5HjAmtQ7MmXm5rEe7kanLWK5+9g/4tsPCrBIkTR0YGP7JUv1bz1tVe1rIqnyhT0uzgFryMXPKylTomu16bCYgiD61wPZs5Xj/ff5R1AdcI1/OmBPAz0NEjNMPiKpAwceyV+Qz51jQk8iwJK6alWzPqVUJatHYnkSEe533qg/VddUGTz9tramgwdaDVKPgaC1v/zH/ftPByxVl0Z5pFT2pXR3d/fDlO/ysYg+6P9I5qR43azaVs/Esfb2YjHKW6tAJip9fX2IWad99CmYmik6/8Pg1n9p8QH/F9nC/xcAVnFuaZ/tSwAAAABJRU5ErkJggg==;" vertex="1" parent="1">
          <mxGeometry x="630" y="120.00000000000003" width="61.35" height="51.59" as="geometry" />
        </mxCell>
        <mxCell id="_7hgCI2BtyIkv9aABqNP-22" value="&lt;b&gt;&lt;font style=&quot;font-size: 14px&quot;&gt;Build Local&lt;/font&gt;&lt;/b&gt;" style="text;html=1;resizable=0;autosize=1;align=center;verticalAlign=middle;points=[];fillColor=none;strokeColor=none;rounded=0;" vertex="1" parent="1">
          <mxGeometry x="711.11" y="140" width="90" height="20" as="geometry" />
        </mxCell>
        <mxCell id="_7hgCI2BtyIkv9aABqNP-23" value="&lt;b&gt;&lt;font style=&quot;font-size: 14px&quot;&gt;Build Local&lt;/font&gt;&lt;/b&gt;" style="text;html=1;resizable=0;autosize=1;align=center;verticalAlign=middle;points=[];fillColor=none;strokeColor=none;rounded=0;" vertex="1" parent="1">
          <mxGeometry x="711.11" y="238.41" width="90" height="20" as="geometry" />
        </mxCell>
        <mxCell id="_7hgCI2BtyIkv9aABqNP-24" value="" style="shape=image;verticalLabelPosition=bottom;labelBackgroundColor=#ffffff;verticalAlign=top;aspect=fixed;imageAspect=0;image=data:image/png,iVBORw0KGgoAAAANSUhEUgAAAC4AAAAwCAYAAABuZUjcAAAViklEQVRoBbWa+VNbV5bH/f/M1EzNTFX3JF3dNdPTnXYy6Z6k7Zg4dhLb6dgx3mLHdmxjG2O8gA1mx4BYxL6LXeyLxCIWAwaxiEU7kkAIsQm06zP1niDd0zXLD1Om6ltPeno8fe7Rueeee847QigI+AAPBF14PE5CfhfgR/gTPg4GIXBwRjjrAfb8fvEKbxD2/SG8IfAC+yFY39vHuO4gu7QU5cQbsitK6Z0YYQ/Yxs8eQbaDXvE+wv8cSrj3X2rX7SMkMADOrQ3x02BIuNrHEfGs3413f5OQf0f46gM0vwgdCoE/CHte2NyHTQ8igAAv3GLPDxu7YN8K4NgL4XSD3RXEtu2jRNZKWVM7uZV1jGiWWPMEMe+5Eb7F7g2wuu9mwx9AMJMwKJfwPQcGOBzAtsvLnjdwMIAgrr0tUQfgAQgJVg9LGJXb68HvD0P7D24mwDo9sGR1MD5vpEzWT05hNy9SannwRMqt6Byu3U3nuxuJnLsax8lvo/mnX5/kt8cvERmVxJ9uvuTCnQRuP5dw8d4L7r3M4FVeCeUtPXSNqhnTGFmybOJwgfvAMFuuoEgl/OLCr3v4CxwJCGYT3ol/Qfb2dnF7fKJriG4QAJsD+keXySluJiYxm9jkbF7llNEzaqJnxEb/hIOxhX3mLWBwgmkL9E6w7UPvWweL62DZh2krLG2GNWcH1eIqPW8XqeoaJr2skWeZxTxLLyQ1v4b8cjk6yx5rm0E8IdjeC7HvB48/7LZHEEYRBH9AUOgnXxbGs7yyTWPHOHHJpTxJKqaiZZhp/SaW3ZAIMmPZQ211M2PzMLfmQ2MPoV7188boYmjJyZhhj765ddRrIfq1Tga028xsIB7HbR7Udh8LWyFMHrAGwOiCt8ZdusZ01HWNc+NBEhn5dYxNm1ixe0T/d3nAE4Qjgg8L2tkLW1nwLfu2G3nfKHdiUimo6UWtd+MMgt0PmjUvo8urDGiMjK84GDXbGTauilKZ1hk2OxCOQ0Y7HXNGVGYn42suWtRalIZ13jq9dGjMjNh2GLHs0q/foEdjo2/ehkq3xYR5nxmrj1mrT/R95bie+NRioh6nol6w/TR5w+CEzS9YWfBj5biamKQs5swu5mx+5m0hJo1uhjQOlLMrqJasjJlWGTCtoDAa6NFp6dYui8c+gx6l0Uy/aYVenRGVdU1Up1aP0rzKgMVO+6Lw2i4ORKFzoNQ5GDA4URl3GDO5GDPs8ka3g2puDa3dz7x5l67BGbILZRhXd8SgcMTjDeHyhEObAK1fX6dlYARJjRz9Fkyv+FDOOemZWWNgaYMx0xZvTBuozDYGzFaUKxZR/RYrA1YbwlG5YkVhtqAw2UTIbp0F1eomSss63QYrihU7/VYHStMGAyubDK1sMmjcQLm8jmLJzuDiOqNaJ8ML60zqN9FYd7FsB7n35BXDU4uicY8I8zJAEDd+cSYLYSmxoBD56BQLm0EmLT7GrQEUi1solzZ5Y92jf8lC7/IKfYZ1+kxOlOYdFKZt+gyb9Og2RPXqnfSbXD9JadxFkMKwE5Zxi36jg6EVp+hO/Xo7A7p1hgwbDOscBxNXh9q8hdrowOmHp8mZTCxoD8H9BERoL26Col8lSAtpHlNjcMOoxceI2UePZpPuOQdDhm36tXbGbLv0G7boN+0zuOIRJbweMOwxaNxnyORGqds9kOsvXh+c02/Tu2RDqbcxoF9FsWxhYHmVEeMGY0Yno9p1Zqw7mF0hdA63GOcFcNX0TBhc8OoQHoR1TLC6sBi8lBbTNDZLhWIW2bCR+S1YAWacMKDbo3vOzphln865NboW1ulddtKn3Qwfl5woljfo120yoNtkUO9kUL8lHlU6J4KG9ZsM6zcYNWwwLkxes5NRwzpjOgcTxk0mjZuMax2YdhCt3a6aRu9w8SzlNRMLS6JnHPmv4GGLvywoo2lUw+1XFfzu3CMirqeTUDZGz5wHgxfMfrAEEQek2YH5bVBvhBBC3Ih55yewEb2DP8vOmF7Qqqg3Ojtj2nWmzNtoVt0sO/wi6JoXNnyw7oHROSvVrYMk51YxOqMjNjGTyUWDuLYfOVwtvQiuQtji+TU0jBqIlXTzwddx/OvJ53zyXRbHI7M5/6CcR5ndZNVNoph1Mri4IcbtaZuHBUcQ3Tas7MOqD1b2DhVkZS+Adc/3Z7mCWHfAtgMrDtAY3IxNO+hTGWnunKWyYZjyugGypE2k5tSiXrQT+zIL1eTB5CQkRO4gvlBQ9B3RVfIaaBi28UQyyHufPObvfhfNb77M5OOzOZy4JOX4dzn84WwCX19L48LtDG7ESHmYWMWLrBYyinuQ1gxR1jhMbdsbZO1j1HWOUd81SlP3CM09w7T0jiDvHkfWOEZT6zQt7XM0t83SJJ+luXWOxpYZausnqagZISu/jbTsBua1u7xMLWVybvXAx4XkMAS+YDiGi+C5chpUDu6nDvBvJ9M4ekbKp99V8y/HMjh6WsLpa1VcvNPAxZs1XLldy/V7Ddy438Ct+/XcfljH3eg6oh7LiEts5UVSK4kpcpLTW8nIaidL0oEkv5v8gh5qayZolE1RL1Mjq5mioW6O1pZlOjoMtLdraW7WkJPXQ0JyLW9nNklMqxYH4A5xkB2GIBA8yPaEyZnbRoPKyePscX5xLIn3j2Xw0bkKfnOqgGPfVXLyUjV/+CqXP54pIOLbEr66XM2FG/VcvSfnVnQHD551E/Oyj2eJCuKSe0lIV5KSM8jr/FHySiaQlk9RXD1NfvEIBcXD5EqHyM7rJ186QmX1DI3NWlpadVRXT5En7Scjq5Wp2R1i4wsZV68dRhXB5GFwwWkEP0/IbaFJZSc6R8XPTyTwi1OZ/MvXBXz4bRlHzxVw4nIFxy4W835EEqejGvnN2Ww+/JOEj89n8/sLWRw9k8zn3+fz5U0pZ34s5k9RpeLc+PZhOWfvFXP6Vj4RP+Rw/GoKn15+wZkfs/n8chJfXUlH1mGiudNCdb2GKtkM+YUDvEqpZ0G7z+P4XNHXXaLFxdU/SCAUFBMsYfVMzG2iSbXKQ8kgP4t4wXun0/nVmTx+d6GED74RwMv4NFLKP3z2lNIJH90mKBnZI6VRS4HCRnrzIk9Kh3mY28f9nB7u5nRzT9LDgwIlT8tHSaifIaVlnoIhCzVTTrp1kNk0y6WYCvLq5iltWKCmeYlK2Qx5Anhq3QG4BPXSKv8/8Ev5fHgtnbKpbbpXENWp8zG4Bt16D136PfrNPvrNHhQrHvrMbnrNXnpMHrpMbjqNHnqs0GUM0aUNkVw7KYKXtuqp6zTT3GV+d+B/+8e7fB5bzOfRUm5kt/GscpCE+lGSGkapGDNSN2mlbnIF2ZSNmkkLFW9MFA0tI1FoyOqZ5W5hJ99nNHI9tYlTd3KIuJJOiVwnuktlg+YdgUcW8UFkLuldG2R22HlcPsPVpC4iX8r58kEJp+8X8cfvM/nkaiofRSbz4cUkPr6axrFbOZx6WMKZJxXclHTwsLiP1KYZorI6OH+/WASvkuuoalx4d+DvfZlC4YiPbiN0GqBtAVSroDBCtxa6FsPqXIKuZegxgHIFBmwwZIcuM/SYQWmGrJZ5foivp6LDRG27kbpW3TsCv5TP+2eeE131hoTGOSRKM5Vv7MgX9mia3aJL56ZX70Fh9NBvDTBgC9Jr9tO27EI2s07lxCoVb+1I+rSixa++rOXLH3IobtFS2aKlTDb7rsBz+cfP73NNIufbxHIiorP45GYCEfeT+OOtOD67G8+52HTOxKRyKjqJz+8n8Nm9sI5HJXD8XiLH72dyIiqLC3GVnL4rEcGruy009drepcVz+dcLL6me36HDFKDd6KNxzknL4gZNc2uUjixQPDBLoXKKfOVbCvqnKByao2JcS+2MhUbNOs3L+2JUaV/0i+FQ8PHKTjMVzctUNy2+K4vn83fHo5COrSPXhpBrfTTP76G0wsg69Jo89OpdKIz7YihUWrwoLH4xJHaZvHTovch1HtHH2xZ8pMje8vWtXMraDGJUaVesviPwSCk/P5VIxKMafnkuiYj7ZZx/3sjZ2EoiX9QTLe0nrmxY1LPyYWJLBsUF6MfsLq6ltXIpqYHjUTkcu5PBsZsZfHIlid9/84LaXhtCVJFWTL478A8ic6iZhYY5KBzaIqF2jpe1auIrJ3mQr+B2upwfM1v4MauVe5IOHkj7iCkZ4EnFKM+rx3ndo6VyYp1GtYvXzXPiAlSnWAsv++9uAcrl7z+7S8nbdXqF8OYEpTXEsAOG16FTt43CtCuqx7RDr3mX3pV9FFYPylU//WshFGswvAG9Bkirn+b0jWzy6zUUyebeYRy/lMsvv3nON0lVHIvK4HZ+Kwn1w7yoU5LaMkzZ6CKN6hUa1Sbq1EZq3uooG1siv19NZvcEqW1j3Mpr5Vp6gxhVvryXy4nLabSoNmnuW32HuUqklH+MiCW9x0qyXMuPeUrOxlZwPr6SSwnVnHsi5fgPyUTcTuNk1Gu+epTLmdgCzj0t5OyzYlHXs1p4WqUirXmW6NweTl7LFON4WeMiMrn2//JxIa0Nivm4UFj837LDo+eLOHoujxOXS8Xs8Nfns6idgy5TeAVsXYRuA3TpoG56B/m8h+bZfRqmd8X3Dep9WuZ9dOgQV9t2AyisiNlhTusCkY9KkXWvUCVfprZlkSqZmvxCJa9Sa1nQuXgcn416yXqQHR6UP4OBcDVLBJeE8/GHEtWf09qzEo5ekPLhOQmfXy7kWGS++Fl0uYZkuYXC4V1kM35xGW/X+ekxh+hdCYlgA2swaId+Wxi4bRGa5r3UqHco6DeT2TrH1ZfVfHE9jeKmeeo7dDS1L1Etm0Ra2EtyaiULum0ev3iNetki7ovDZeYQ/M/gCeF8/KyED8//Gfx4ZC6/OpPMlUwlp2NlHIsq4N9vpvP726l8fOslX8S+5tSTTL6IzeBUTCZfPHrNF9HZfBGdw5ePpKI+uZnO8TtZXEqo5Vx0AeduZ1PTZaChU0d1g5pq2TjSwu4wuH5TBJ9etoj19SOCmwh7TgFcKH4K9cPEQ4vnjPCzCAE8U9xIHD1fwodn84i4XCpa/L3TzyhQ2ekwQ5sxSM2ck7rFdaSjGrKUE6R3DZHWOUhqxxBpHSNkdo6T0ztNvnKRwkE9tVPbNM3ti64iJFm34mWUty5R1ayhumFWtHh+US+vUqvDFo/PZnrZ+lfgAv9/C57Ie6ey+NWZAo6eL+Po2UJx6ybsgD6+KqF4bBO5DjpXoNXopXvVj9ywRadlF8WqG6V9n367l4H1AANrAZTWAH0rIXpNIZQW6NRC66ybFyUqLkRJKWlapL7dQHOXgaq6ScLgtWj0O8S8kDC9vHoIHi5PCH2eQ/AkibB1s/NQtHgi/3w6h1+ekfK78+V8cK6Y45dr+PRiKX/zcQz/8UMpv72YzalHNVxIbCYyuZlraU0kNo4TV60S9bxqmKcVQ+Lq+bBAyb0cBbezusUodOqBlG9jy4m4nskXVzKoajfQ0G2mpnmBKtkUeUV9JKbWodG5iInPZXrJzs5f7jmDwaDYmBBcRQBvVq2Km+WfRRyCF/Hb85X89lwJxy/J+CSynI8uFpCv3KFi1ENer4MXtbM8qXjDjUw536c1cD29ke/T6vg+pZ7vUxq5kSbnVmY7Udm9REkUpDTOktm6SJnSRpx0iMvR5ZQLYbBlicqGOSrr1OQVKQ/A9w/AHYfgQt/HzyG4YP9kSQPNKhsx2YPiLl9wFcHih+DHLgvgxfz6m1c0a3yMbwkrZQDZtIOBVehf9dNt2KVtySmqc2mLbu2OmJsPWgKM2GDMDkMWGLHCuA0kTfNcfVxOUYOGmjYd8h6zCJ5bpCQhrZ55nYeY+Hyml/4KPBQUkMPtOqHkJVeZeZyt5P0TcfzilLDLD/t42FWq+DSyiPcjYrnwvJbzz6t4WqYit3ORYqWegp5FGqbsNL610zS1Rot6g+ZpB43jdqqHzBT3LJPfPk+6bJIYSRd3U5r46tZrTl1JoapDJ7pKdZOGyropwuB1zOsFi4fBhe7cEZ9/n2BAqKaEwQ1mO609E+TXDFHStsTX98r5h/+I5f2Tqfzhu2I+OpfP77/J46sbtWJt5Q8XpHz0TS5Hz2Zz9OxrsbZyLDKXiGsFnL5RfKASTl0v5tS1Ek5eKeJEZAGfCXXI+4VcfCTlVnwVcZIu8mVvqe5Yor5Di6xVQ718jpSsFooqlKw64e6jNN6ozeGCUAg//oAALyw9YT8feqMh6lkOHePrSNt03Enr49gVKb85lcTRL1M5/m02n1/M49s79Vy438KlR+1ce9LJ90+7uPaknSsxci5FN/LDkzZuPm3nTnw3D5MGeZbxhld5M6QXL/K6XMPrynGkTVNUdS5Q3bVIuXyWksZJKhreUts8RW5xL6ZVUC9sI2tSkZRRin0rFG6lCEV9oWK7797+yerrmx7kvRM8SCimqGWWnhk/8nE3Bc16XuaquPW4hq+vpHPiu1eciEwUf+JzN7OIvC/l5vMKHr6qJzathbisDlHxrzt4kdXNq1wF6UUqcirGyasZp7RpgqL6UVFVbdN0DBkYnt7g7fwu05odnC4Yn14lIaWUlPRSzNY9kVZoFh/xi1YOw/u8Lrxe90/RZdawQ5l8kkdpDcRJOqlsX6Rv0smbWRdv5vdoGzZR26OhoG6EpIJ2nqY3EJNSTWxKDU/TZLzMbiYhp4VkSTtp+V1klyiRVo9QWj9BZcskXSotfWN6RmfXmDXss7ziR720hUKlpbF1jOu343kal41iQM32LgSE7uCOD68PjriCPvZ8Qhv8oKsc8OD1en8qxwk17NkVLwNqO4W1/dx/LuHR02xe5zXxurCLsoZJekdXmTWEMDrAsA4LJpheCqAxhl9rzWCwgtEG5jWwCLLD8KSJoXEtbb2T5Ba38DhewsPYTJIzKiir7BAryFs7YWBhjdkTOrQHzeQjgmd7gl7CniO88xEKetnbDzdEhTNCQ0uQMIWFnv38ggXVyBxj0xZa+ubIKezk0fNCfriXzs2oDB4+LSQusYrYuNKwnpcQ87SIh48LuPdQwu17r7l9J4UXibnkFdbQ2qliZHyBmXkrJotLfG5AsK4gYWHc3vaGS+G+AKFAEM++GxFc6LoFgm78HsHPw/DCRN3ZF/oU4TM7ftj2hDNIYdTCwHe8sOUPP5iw7gpi2fCgs24zr3cws7jKtMYqNlXnF9dY1DrQGjYxmHcw23ax2HbDXewQ7HsPWt0HsIfAbveBgYUHIYQHEYRaeMhPyPcX4OFw6IOAm5B/H0LhJxYE7z+UkK8HBehAEL/fjzcYEH8FYXCCDq87PArXH0poHAjfKzzQcJBJi2148X4HjxMEhLa8P2zlw2v2XF58PiEDFFYZ4SaC9f38J+vLG9mxYjlYAAAAAElFTkSuQmCC;" vertex="1" parent="1">
          <mxGeometry x="442" y="230" width="46" height="48" as="geometry" />
        </mxCell>
        <mxCell id="_7hgCI2BtyIkv9aABqNP-25" value="&lt;span style=&quot;font-size: 14px&quot;&gt;&lt;b&gt;Repo Git&lt;/b&gt;&lt;/span&gt;" style="text;html=1;resizable=0;autosize=1;align=center;verticalAlign=middle;points=[];fillColor=none;strokeColor=none;rounded=0;" vertex="1" parent="1">
          <mxGeometry x="430" y="290" width="70" height="20" as="geometry" />
        </mxCell>
        <mxCell id="_7hgCI2BtyIkv9aABqNP-26" value="" style="endArrow=classic;html=1;strokeWidth=2;" edge="1" parent="1">
          <mxGeometry width="50" height="50" relative="1" as="geometry">
            <mxPoint x="620" y="160" as="sourcePoint" />
            <mxPoint x="490" y="240" as="targetPoint" />
          </mxGeometry>
        </mxCell>
        <mxCell id="_7hgCI2BtyIkv9aABqNP-27" value="" style="endArrow=classic;html=1;strokeWidth=2;" edge="1" parent="1">
          <mxGeometry width="50" height="50" relative="1" as="geometry">
            <mxPoint x="618" y="270" as="sourcePoint" />
            <mxPoint x="488" y="270" as="targetPoint" />
          </mxGeometry>
        </mxCell>
        <mxCell id="_7hgCI2BtyIkv9aABqNP-29" value="" style="endArrow=classic;html=1;strokeWidth=2;entryX=0.252;entryY=1.19;entryDx=0;entryDy=0;entryPerimeter=0;" edge="1" parent="1" target="_7hgCI2BtyIkv9aABqNP-12">
          <mxGeometry width="50" height="50" relative="1" as="geometry">
            <mxPoint x="183" y="390" as="sourcePoint" />
            <mxPoint x="189.99999999999994" y="290.00000000000006" as="targetPoint" />
          </mxGeometry>
        </mxCell>
      </root>
    </mxGraphModel>
  </diagram>
</mxfile>
